<?xml version="1.0" encoding="UTF-8"?>
<svg id="Capa_1" data-name="Capa 1" xmlns="http://www.w3.org/2000/svg" xmlns:xlink="http://www.w3.org/1999/xlink" viewBox="0 0 512 256">
  <defs>
    <style>
      .cls-1 {
        fill: #0a566d;
      }

      .cls-2 {
        fill: #f4aa2b;
      }

      .cls-3 {
        fill: #b0cdd2;
      }

      .cls-4 {
        fill: #186e7c;
      }

      .cls-5 {
        fill: #fdfefe;
      }

      .cls-6 {
        fill: #eb9508;
      }

      .cls-7 {
        fill: #0c8394;
      }

      .cls-8 {
        fill: #f5ac22;
      }

      .cls-9 {
        fill: #ef9b0b;
      }

      .cls-10 {
        fill: #1b6e83;
      }

      .cls-11 {
        fill: #11729b;
      }

      .cls-12 {
        fill: #f7aa14;
      }

      .cls-13 {
        fill: #1f7b8d;
      }

      .cls-14 {
        fill: #065f75;
      }

      .cls-15 {
        fill: #f8ad1b;
      }

      .cls-16 {
        fill: #f8ad18;
      }

      .cls-17 {
        fill: #ef9d09;
      }

      .cls-18 {
        fill: #1c6c7a;
      }

      .cls-19 {
        fill: none;
      }

      .cls-20 {
        fill: #0a697e;
      }

      .cls-21 {
        clip-path: url(#clippath-1);
      }

      .cls-22 {
        fill: #ea930f;
      }

      .cls-23 {
        fill: #0e5969;
      }

      .cls-24 {
        fill: #e88c0a;
      }

      .cls-25 {
        fill: #e3b04a;
      }

      .cls-26 {
        fill: #0b778b;
      }

      .cls-27 {
        fill: #07576f;
      }

      .cls-28 {
        fill: #0a7186;
      }

      .cls-29 {
        fill: #128192;
      }

      .cls-30 {
        fill: #686867;
      }

      .cls-31 {
        fill: #f0a212;
      }

      .cls-32 {
        fill: #06647b;
      }

      .cls-33 {
        fill: #237b87;
      }

      .cls-34 {
        fill: #106d7a;
      }

      .cls-35 {
        fill: #ef9b16;
      }

      .cls-36 {
        fill: #05677d;
      }

      .cls-37 {
        fill: #086c81;
      }

      .cls-38 {
        fill: #fefefd;
      }

      .cls-39 {
        fill: #e88e0b;
      }

      .cls-40 {
        fill: #eb960d;
      }

      .cls-41 {
        fill: #147c90;
      }

      .cls-42 {
        fill: #128092;
      }

      .cls-43 {
        clip-path: url(#clippath);
      }

      .cls-44 {
        fill: #0d5969;
      }

      .cls-45 {
        fill: #127c8e;
      }
    </style>
    <clipPath id="clippath">
      <rect class="cls-19" x="-.31" y="4.01" width="221.58" height="247.2"/>
    </clipPath>
    <clipPath id="clippath-1">
      <rect class="cls-19" x="-.31" y="4.01" width="221.58" height="247.2"/>
    </clipPath>
  </defs>
  <g>
    <path class="cls-5" d="M512,245.99c-.2.86-.97,1.37-1.79,1.19v-1.19s1.79,0,1.79,0Z"/>
    <g>
      <path class="cls-11" d="M296.05,29.83c0,1.07-.05,1.97-.16,2.7-.11.73-.28,1.31-.51,1.74-.24.43-.5.75-.8.96-.3.21-.64.32-1.02.32h-27.05v18.61h25.39c.38,0,.72.09,1.02.27.3.18.56.48.8.91.23.43.4,1,.51,1.71.11.71.16,1.6.16,2.67s-.05,1.96-.16,2.67c-.11.71-.28,1.3-.51,1.77-.24.46-.5.79-.8.99-.3.2-.64.29-1.02.29h-25.39v25.78c0,.39-.13.73-.38,1.02-.26.29-.71.53-1.38.72-.66.2-1.53.35-2.59.45-1.07.11-2.43.16-4.09.16s-2.97-.05-4.06-.16c-1.09-.11-1.95-.26-2.59-.45-.64-.2-1.1-.44-1.38-.72-.28-.29-.42-.62-.42-1.02V28.49c0-1.57.48-2.7,1.44-3.4.96-.7,2.14-1.04,3.55-1.04h38.95c.38,0,.72.1,1.02.29.3.2.56.52.8.96.23.45.4,1.04.51,1.79.11.75.16,1.66.16,2.73Z"/>
      <path class="cls-11" d="M353.8,91.6c0,.5-.21.89-.64,1.18-.43.29-1.1.49-2.01.62-.92.12-2.27.19-4.06.19-1.92,0-3.32-.06-4.19-.19-.87-.13-1.49-.33-1.85-.62-.36-.28-.54-.68-.54-1.18v-3.8c-2.35,2.1-5.02,3.74-8.03,4.92-3.01,1.18-6.34,1.76-10.01,1.76-3.03,0-5.81-.33-8.35-.99s-4.73-1.64-6.59-2.94c-1.86-1.3-3.29-2.91-4.32-4.84s-1.54-4.17-1.54-6.74c0-2.78.65-5.2,1.95-7.25,1.3-2.05,3.24-3.74,5.82-5.08,2.58-1.34,5.79-2.33,9.63-2.97s8.29-.96,13.37-.96h5.56v-2.89c0-1.5-.18-2.81-.54-3.93s-.96-2.06-1.79-2.81c-.83-.75-1.94-1.3-3.33-1.66-1.39-.36-3.1-.53-5.15-.53-2.69,0-5.08.25-7.2.75-2.11.5-3.98,1.05-5.6,1.66-1.62.61-2.97,1.16-4.06,1.66-1.09.5-1.97.75-2.65.75-.47,0-.88-.12-1.25-.37-.36-.25-.66-.61-.9-1.07-.23-.46-.42-1.03-.54-1.71-.13-.68-.19-1.43-.19-2.25,0-1.1.11-1.98.32-2.62.21-.64.62-1.22,1.21-1.74.6-.52,1.64-1.09,3.13-1.71,1.49-.62,3.24-1.2,5.25-1.74,2-.53,4.19-.97,6.56-1.31,2.37-.34,4.81-.51,7.32-.51,4.48,0,8.3.37,11.48,1.1,3.18.73,5.79,1.85,7.83,3.37,2.05,1.52,3.54,3.47,4.48,5.86.94,2.39,1.41,5.22,1.41,8.5v32.09ZM338.01,71.17h-6.14c-2.6,0-4.82.16-6.65.48-1.83.32-3.33.8-4.48,1.44-1.15.64-1.99,1.42-2.53,2.33-.53.91-.8,1.95-.8,3.13,0,2,.76,3.57,2.27,4.71,1.51,1.14,3.61,1.71,6.3,1.71,2.26,0,4.34-.48,6.24-1.44,1.9-.96,3.83-2.37,5.79-4.22v-8.13ZM332.38,20.31c.3-.39.66-.73,1.09-1.02.43-.29.96-.51,1.6-.67s1.45-.28,2.43-.35c.98-.07,2.17-.11,3.58-.11,1.96,0,3.51.07,4.64.21,1.13.14,1.94.35,2.43.62.49.27.71.58.67.94-.04.36-.26.73-.64,1.12l-12.41,12.41c-.34.36-.68.65-1.02.88-.34.23-.78.42-1.31.56-.53.14-1.21.25-2.01.32-.81.07-1.83.11-3.07.11-1.49,0-2.68-.05-3.55-.16-.88-.11-1.48-.28-1.82-.51-.34-.23-.48-.53-.42-.88.06-.36.29-.77.67-1.23l9.15-12.25Z"/>
      <path class="cls-11" d="M413.03,83.85c0,.93-.03,1.7-.1,2.33-.06.62-.15,1.15-.26,1.58-.11.43-.24.78-.38,1.04-.15.27-.48.61-.99,1.02-.51.41-1.39.91-2.62,1.5-1.24.59-2.64,1.11-4.22,1.58-1.58.46-3.29.84-5.15,1.12-1.86.29-3.76.43-5.72.43-4.39,0-8.28-.57-11.67-1.71-3.39-1.14-6.24-2.83-8.54-5.05-2.3-2.23-4.04-4.95-5.21-8.16-1.17-3.21-1.76-6.88-1.76-11.02,0-4.78.71-8.9,2.14-12.38,1.43-3.48,3.42-6.35,5.98-8.64,2.56-2.28,5.58-3.97,9.08-5.08,3.5-1.1,7.33-1.66,11.51-1.66,1.71,0,3.38.13,5.02.37,1.64.25,3.18.59,4.6,1.02s2.71.91,3.84,1.44c1.13.53,1.93,1,2.4,1.39.47.39.8.72.99.99.19.27.34.61.45,1.04.11.43.19.95.26,1.58.06.62.1,1.38.1,2.27,0,2.07-.21,3.52-.64,4.36-.43.84-.98,1.26-1.66,1.26-.73,0-1.49-.25-2.3-.75-.81-.5-1.77-1.05-2.88-1.66-1.11-.61-2.43-1.16-3.96-1.66-1.54-.5-3.37-.75-5.5-.75-4.18,0-7.38,1.35-9.59,4.04-2.22,2.69-3.33,6.64-3.33,11.85,0,2.57.28,4.83.83,6.79.55,1.96,1.38,3.6,2.46,4.92,1.09,1.32,2.45,2.31,4.09,2.97,1.64.66,3.55.99,5.72.99s4.12-.28,5.72-.83c1.6-.55,3-1.17,4.19-1.84,1.19-.68,2.2-1.29,3.01-1.85.81-.55,1.49-.83,2.05-.83.38,0,.7.09.96.27.26.18.46.51.61.99.15.48.27,1.1.35,1.85.08.75.13,1.71.13,2.89Z"/>
      <path class="cls-11" d="M442,27.59c0,2.71-.66,4.58-1.98,5.62-1.32,1.03-3.77,1.55-7.35,1.55s-6.07-.5-7.32-1.5c-1.26-1-1.89-2.8-1.89-5.4s.65-4.59,1.95-5.64c1.3-1.05,3.76-1.58,7.39-1.58s6.01.51,7.29,1.52,1.92,2.83,1.92,5.43ZM440.79,91.44c0,.36-.13.67-.38.94-.26.27-.69.49-1.31.67-.62.18-1.44.31-2.46.4-1.02.09-2.32.13-3.9.13s-2.88-.04-3.9-.13c-1.02-.09-1.84-.22-2.46-.4-.62-.18-1.06-.4-1.31-.67-.26-.27-.38-.58-.38-.94v-47.6c0-.36.13-.67.38-.94s.69-.5,1.31-.7c.62-.2,1.44-.35,2.46-.45s2.32-.16,3.9-.16,2.88.05,3.9.16,1.84.26,2.46.45c.62.2,1.05.43,1.31.7s.38.58.38.94v47.6Z"/>
      <path class="cls-11" d="M472.96,91.44c0,.36-.13.67-.38.94-.26.27-.69.49-1.31.67-.62.18-1.44.31-2.46.4-1.02.09-2.32.13-3.9.13s-2.88-.04-3.9-.13c-1.02-.09-1.84-.22-2.46-.4-.62-.18-1.06-.4-1.31-.67-.26-.27-.38-.58-.38-.94V21.11c0-.36.13-.68.38-.96.26-.28.69-.53,1.31-.72.62-.2,1.44-.35,2.46-.45s2.32-.16,3.9-.16,2.88.05,3.9.16,1.84.26,2.46.45c.62.2,1.05.44,1.31.72.26.29.38.61.38.96v70.33Z"/>
    </g>
    <g>
      <path class="cls-1" d="M287.13,111.7c0,.85-.04,1.57-.13,2.15-.08.58-.22,1.04-.41,1.38-.19.34-.4.59-.63.76-.24.17-.51.26-.81.26h-21.5v14.79h20.18c.3,0,.58.07.81.21.24.14.45.38.64.72.19.34.32.79.41,1.36.08.57.13,1.28.13,2.13s-.04,1.56-.13,2.12c-.08.57-.22,1.04-.41,1.4-.19.37-.4.63-.64.79-.24.16-.51.23-.81.23h-20.18v20.49c0,.31-.1.58-.3.81-.2.23-.57.42-1.09.57-.53.16-1.21.28-2.06.36-.85.08-1.93.13-3.25.13s-2.36-.04-3.23-.13-1.55-.21-2.06-.36c-.51-.16-.87-.35-1.09-.57-.22-.23-.33-.5-.33-.81v-49.86c0-1.25.38-2.15,1.14-2.7.76-.55,1.7-.83,2.82-.83h30.96c.3,0,.58.08.81.23.24.16.45.41.63.77.19.35.32.83.41,1.42.08.59.13,1.32.13,2.17Z"/>
      <path class="cls-1" d="M311.02,109.91c0,2.15-.53,3.64-1.58,4.46s-3,1.23-5.85,1.23-4.82-.4-5.82-1.19c-1-.79-1.5-2.22-1.5-4.29s.52-3.65,1.55-4.48c1.03-.84,2.99-1.25,5.87-1.25s4.78.4,5.79,1.21c1.02.81,1.53,2.25,1.53,4.31ZM310.05,160.66c0,.28-.1.53-.3.74-.2.21-.55.39-1.04.53-.49.14-1.14.25-1.96.32-.81.07-1.85.11-3.1.11s-2.29-.04-3.1-.11-1.47-.18-1.96-.32-.84-.32-1.04-.53c-.2-.21-.3-.46-.3-.74v-37.83c0-.28.1-.53.3-.74s.55-.4,1.04-.55c.49-.16,1.14-.28,1.96-.36.81-.09,1.85-.13,3.1-.13s2.29.04,3.1.13c.81.08,1.46.21,1.96.36.49.16.84.34,1.04.55s.3.46.3.74v37.83Z"/>
      <path class="cls-1" d="M354.74,149.95c0,2.15-.48,4.05-1.45,5.7-.97,1.64-2.33,3.02-4.09,4.12-1.76,1.11-3.85,1.93-6.25,2.49-2.41.55-5.02.83-7.83.83-1.7,0-3.31-.11-4.86-.32-1.54-.21-2.92-.48-4.14-.81-1.22-.33-2.24-.66-3.05-1s-1.41-.66-1.78-.96c-.37-.3-.66-.77-.86-1.4s-.3-1.58-.3-2.83c0-.82.03-1.48.1-1.98.07-.5.17-.89.3-1.19s.31-.5.51-.59.46-.15.76-.15c.37,0,.92.18,1.65.53s1.63.74,2.72,1.17c1.08.43,2.35.82,3.79,1.19,1.44.37,3.08.55,4.91.55,1.15,0,2.18-.1,3.08-.3.9-.2,1.68-.48,2.34-.85s1.16-.84,1.5-1.4c.34-.57.51-1.22.51-1.96,0-.85-.31-1.58-.94-2.19-.63-.61-1.46-1.14-2.49-1.59s-2.2-.88-3.51-1.28c-1.31-.4-2.64-.84-4.02-1.32-1.37-.48-2.71-1.03-4.02-1.66-1.3-.62-2.47-1.39-3.51-2.29-1.03-.91-1.86-2-2.49-3.27-.63-1.27-.94-2.8-.94-4.59s.42-3.48,1.27-4.99c.85-1.52,2.07-2.81,3.66-3.89,1.59-1.08,3.53-1.91,5.82-2.51,2.29-.6,4.85-.89,7.7-.89,1.42,0,2.8.08,4.14.25,1.34.17,2.55.38,3.63.64,1.08.25,2,.53,2.75.83s1.28.55,1.6.77c.32.21.55.43.69.64.13.21.24.47.3.77.07.3.13.67.18,1.1.05.44.08.98.08,1.64,0,.77-.03,1.39-.08,1.87-.05.48-.14.87-.25,1.15-.12.28-.28.47-.48.57-.2.1-.44.15-.71.15-.31,0-.78-.15-1.42-.45-.64-.3-1.45-.62-2.41-.96-.97-.34-2.08-.66-3.36-.96-1.27-.3-2.72-.45-4.35-.45-1.15,0-2.15.1-3,.3-.85.2-1.54.48-2.08.85-.54.37-.95.8-1.22,1.3-.27.5-.41,1.03-.41,1.59,0,.88.32,1.62.97,2.21.64.6,1.49,1.12,2.54,1.57s2.25.88,3.58,1.28,2.69.83,4.07,1.3c1.37.47,2.73,1.01,4.07,1.64,1.34.62,2.53,1.39,3.58,2.29,1.05.91,1.9,1.99,2.54,3.25.64,1.26.97,2.76.97,4.48Z"/>
      <path class="cls-1" d="M398.65,154.63c0,.74-.03,1.35-.08,1.85-.05.5-.12.91-.2,1.25-.08.34-.19.62-.3.83-.12.21-.38.48-.79.81s-1.1.72-2.08,1.19c-.98.47-2.1.89-3.36,1.25-1.25.37-2.62.67-4.09.89-1.47.23-2.99.34-4.55.34-3.49,0-6.58-.45-9.28-1.36-2.69-.91-4.96-2.25-6.79-4.02s-3.21-3.93-4.14-6.48c-.93-2.55-1.4-5.47-1.4-8.76,0-3.8.57-7.08,1.7-9.84,1.13-2.76,2.72-5.05,4.75-6.86,2.03-1.81,4.44-3.16,7.22-4.04,2.78-.88,5.83-1.32,9.15-1.32,1.35,0,2.68.1,3.99.3,1.3.2,2.52.47,3.66.81,1.13.34,2.15.72,3.05,1.15.9.43,1.53.79,1.91,1.11.37.31.63.57.79.79.15.21.27.49.36.83.08.34.15.76.2,1.25.05.5.08,1.1.08,1.81,0,1.64-.17,2.8-.51,3.46-.34.67-.78,1-1.32,1-.58,0-1.19-.2-1.83-.59s-1.41-.84-2.29-1.32c-.88-.48-1.93-.92-3.15-1.32-1.22-.4-2.68-.59-4.37-.59-3.32,0-5.86,1.07-7.62,3.21-1.76,2.14-2.64,5.28-2.64,9.41,0,2.04.22,3.84.66,5.4.44,1.56,1.09,2.86,1.96,3.91.86,1.05,1.95,1.83,3.25,2.36,1.3.52,2.82.79,4.55.79s3.28-.22,4.55-.66,2.38-.93,3.33-1.47c.95-.54,1.74-1.03,2.39-1.47.64-.44,1.19-.66,1.63-.66.3,0,.56.07.76.21.2.14.36.4.48.79.12.38.21.87.28,1.47.07.6.1,1.36.1,2.3Z"/>
      <path class="cls-1" d="M445.93,160.79c0,.4-.17.71-.51.93-.34.23-.87.39-1.6.49-.73.1-1.8.15-3.23.15-1.52,0-2.63-.05-3.33-.15-.7-.1-1.19-.26-1.47-.49-.29-.23-.43-.54-.43-.93v-3.02c-1.86,1.67-3.99,2.98-6.38,3.91-2.39.93-5.04,1.4-7.96,1.4-2.41,0-4.62-.26-6.63-.79-2.02-.52-3.76-1.3-5.24-2.34-1.47-1.03-2.62-2.32-3.43-3.85s-1.22-3.32-1.22-5.36c0-2.21.52-4.13,1.55-5.76,1.03-1.63,2.58-2.98,4.63-4.04,2.05-1.06,4.6-1.85,7.65-2.36,3.05-.51,6.59-.77,10.62-.77h4.42v-2.29c0-1.19-.14-2.23-.43-3.12s-.76-1.64-1.42-2.23c-.66-.59-1.54-1.03-2.64-1.32-1.1-.28-2.46-.43-4.09-.43-2.13,0-4.04.2-5.72.6-1.68.4-3.16.84-4.45,1.32-1.29.48-2.36.92-3.23,1.32s-1.57.6-2.11.6c-.37,0-.7-.1-.99-.3-.29-.2-.53-.48-.71-.85-.19-.37-.33-.82-.43-1.36-.1-.54-.15-1.13-.15-1.79,0-.88.08-1.57.25-2.08.17-.51.49-.97.97-1.38.47-.41,1.3-.86,2.49-1.36,1.19-.5,2.58-.96,4.17-1.38,1.59-.42,3.33-.77,5.21-1.04,1.88-.27,3.82-.4,5.82-.4,3.56,0,6.6.29,9.12.87,2.52.58,4.6,1.47,6.23,2.68,1.63,1.21,2.81,2.76,3.56,4.65.75,1.9,1.12,4.15,1.12,6.76v25.5ZM433.37,144.55h-4.88c-2.07,0-3.83.13-5.29.38s-2.64.64-3.56,1.15-1.58,1.13-2.01,1.85-.63,1.55-.63,2.49c0,1.59.6,2.83,1.8,3.74,1.2.91,2.87,1.36,5.01,1.36,1.8,0,3.45-.38,4.96-1.15,1.51-.76,3.04-1.88,4.6-3.36v-6.46Z"/>
      <path class="cls-1" d="M471.5,160.66c0,.28-.1.53-.3.74-.2.21-.55.39-1.04.53-.49.14-1.14.25-1.96.32-.81.07-1.85.11-3.1.11s-2.29-.04-3.1-.11-1.47-.18-1.96-.32-.84-.32-1.04-.53c-.2-.21-.3-.46-.3-.74v-55.89c0-.28.1-.54.3-.77.2-.23.55-.42,1.04-.57.49-.16,1.14-.28,1.96-.36s1.85-.13,3.1-.13,2.29.04,3.1.13c.81.08,1.46.21,1.96.36.49.16.84.35,1.04.57.2.23.3.48.3.77v55.89Z"/>
    </g>
    <g>
      <path class="cls-30" d="M255.41,189.44h-5.27v-1.9h12.82v1.9h-5.29v15.42h-2.26v-15.42Z"/>
      <path class="cls-30" d="M274.06,201.46c0,1.28.03,2.42.1,3.39h-2l-.13-2.03h-.05c-.59,1-1.9,2.31-4.11,2.31-1.95,0-4.29-1.08-4.29-5.45v-7.27h2.26v6.89c0,2.36.72,3.96,2.78,3.96,1.52,0,2.57-1.05,2.98-2.06.13-.33.21-.75.21-1.16v-7.63h2.26v9.04Z"/>
      <path class="cls-30" d="M282.95,202.54c.67.44,1.85.9,2.98.9,1.64,0,2.42-.82,2.42-1.85,0-1.08-.64-1.67-2.31-2.29-2.24-.8-3.29-2.03-3.29-3.52,0-2,1.62-3.65,4.29-3.65,1.26,0,2.36.36,3.06.77l-.57,1.64c-.49-.31-1.39-.72-2.54-.72-1.34,0-2.08.77-2.08,1.7,0,1.03.75,1.49,2.36,2.11,2.16.82,3.26,1.9,3.26,3.75,0,2.18-1.7,3.73-4.65,3.73-1.36,0-2.62-.33-3.5-.85l.57-1.72Z"/>
      <path class="cls-30" d="M304.69,198.53c0,4.6-3.19,6.6-6.19,6.6-3.37,0-5.96-2.47-5.96-6.4,0-4.16,2.72-6.6,6.17-6.6s5.99,2.6,5.99,6.4ZM294.82,198.66c0,2.72,1.57,4.78,3.78,4.78s3.78-2.03,3.78-4.83c0-2.11-1.05-4.78-3.73-4.78s-3.83,2.47-3.83,4.83Z"/>
      <path class="cls-30" d="M307.54,186.61h2.26v18.24h-2.26v-18.24Z"/>
      <path class="cls-30" d="M324.01,201.46c0,1.28.03,2.42.1,3.39h-2l-.13-2.03h-.05c-.59,1-1.9,2.31-4.11,2.31-1.95,0-4.29-1.08-4.29-5.45v-7.27h2.26v6.89c0,2.36.72,3.96,2.78,3.96,1.52,0,2.57-1.05,2.98-2.06.13-.33.21-.75.21-1.16v-7.63h2.26v9.04Z"/>
      <path class="cls-30" d="M336.63,204.39c-.59.31-1.9.72-3.57.72-3.75,0-6.19-2.54-6.19-6.35s2.62-6.6,6.68-6.6c1.34,0,2.52.33,3.13.64l-.51,1.75c-.54-.31-1.39-.59-2.62-.59-2.85,0-4.39,2.11-4.39,4.7,0,2.88,1.85,4.65,4.32,4.65,1.29,0,2.13-.33,2.78-.62l.39,1.7Z"/>
      <path class="cls-30" d="M341.79,188.92c.03.77-.54,1.39-1.44,1.39-.8,0-1.36-.62-1.36-1.39s.59-1.41,1.41-1.41,1.39.62,1.39,1.41ZM339.28,204.85v-12.44h2.26v12.44h-2.26Z"/>
      <path class="cls-30" d="M356.54,198.53c0,4.6-3.19,6.6-6.19,6.6-3.37,0-5.96-2.47-5.96-6.4,0-4.16,2.72-6.6,6.17-6.6s5.99,2.6,5.99,6.4ZM346.68,198.66c0,2.72,1.57,4.78,3.78,4.78s3.78-2.03,3.78-4.83c0-2.11-1.05-4.78-3.73-4.78s-3.83,2.47-3.83,4.83ZM353.85,187.04l-3.13,3.67h-1.62l2.26-3.67h2.49Z"/>
      <path class="cls-30" d="M359.4,195.78c0-1.29-.03-2.34-.1-3.37h2l.13,2.06h.05c.62-1.18,2.06-2.34,4.11-2.34,1.72,0,4.39,1.03,4.39,5.29v7.43h-2.26v-7.17c0-2-.75-3.67-2.88-3.67-1.49,0-2.65,1.05-3.03,2.31-.1.28-.15.67-.15,1.05v7.48h-2.26v-9.07Z"/>
      <path class="cls-30" d="M387.97,204.39c-.59.31-1.9.72-3.57.72-3.75,0-6.19-2.54-6.19-6.35s2.62-6.6,6.68-6.6c1.34,0,2.52.33,3.13.64l-.51,1.75c-.54-.31-1.39-.59-2.62-.59-2.85,0-4.39,2.11-4.39,4.7,0,2.88,1.85,4.65,4.32,4.65,1.29,0,2.13-.33,2.78-.62l.39,1.7Z"/>
      <path class="cls-30" d="M401.72,198.53c0,4.6-3.19,6.6-6.19,6.6-3.37,0-5.96-2.47-5.96-6.4,0-4.16,2.72-6.6,6.17-6.6s5.99,2.6,5.99,6.4ZM391.85,198.66c0,2.72,1.57,4.78,3.78,4.78s3.78-2.03,3.78-4.83c0-2.11-1.05-4.78-3.73-4.78s-3.83,2.47-3.83,4.83Z"/>
      <path class="cls-30" d="M404.57,195.78c0-1.29-.03-2.34-.1-3.37h2l.13,2.06h.05c.62-1.18,2.06-2.34,4.11-2.34,1.72,0,4.39,1.03,4.39,5.29v7.43h-2.26v-7.17c0-2-.75-3.67-2.88-3.67-1.49,0-2.65,1.05-3.03,2.31-.1.28-.15.67-.15,1.05v7.48h-2.26v-9.07Z"/>
      <path class="cls-30" d="M421.45,188.84v3.57h3.24v1.72h-3.24v6.71c0,1.54.44,2.42,1.7,2.42.59,0,1.03-.08,1.31-.15l.1,1.7c-.44.18-1.13.31-2,.31-1.05,0-1.9-.33-2.44-.95-.64-.67-.87-1.77-.87-3.24v-6.78h-1.93v-1.72h1.93v-2.98l2.21-.59Z"/>
      <path class="cls-30" d="M434.12,204.85l-.18-1.57h-.08c-.69.98-2.03,1.85-3.8,1.85-2.52,0-3.8-1.77-3.8-3.57,0-3.01,2.67-4.65,7.48-4.62v-.26c0-1.03-.28-2.88-2.83-2.88-1.16,0-2.36.36-3.24.92l-.51-1.49c1.03-.67,2.52-1.11,4.09-1.11,3.8,0,4.73,2.6,4.73,5.09v4.65c0,1.08.05,2.13.21,2.98h-2.06ZM433.78,198.51c-2.47-.05-5.27.38-5.27,2.8,0,1.46.98,2.16,2.13,2.16,1.62,0,2.65-1.03,3.01-2.08.08-.23.13-.49.13-.72v-2.16Z"/>
      <path class="cls-30" d="M439.51,204.85c.05-.85.1-2.11.1-3.21v-15.03h2.24v7.81h.05c.8-1.39,2.24-2.29,4.24-2.29,3.08,0,5.27,2.57,5.24,6.35,0,4.45-2.8,6.65-5.58,6.65-1.8,0-3.24-.69-4.16-2.34h-.08l-.1,2.06h-1.95ZM441.85,199.87c0,.28.05.57.1.82.44,1.57,1.75,2.65,3.39,2.65,2.36,0,3.78-1.93,3.78-4.78,0-2.49-1.28-4.62-3.7-4.62-1.54,0-2.98,1.05-3.44,2.78-.05.26-.13.57-.13.92v2.24Z"/>
      <path class="cls-30" d="M454.24,186.61h2.26v18.24h-2.26v-18.24Z"/>
      <path class="cls-30" d="M461.56,199.04c.05,3.06,2,4.32,4.27,4.32,1.62,0,2.6-.28,3.44-.64l.39,1.62c-.8.36-2.16.77-4.14.77-3.83,0-6.12-2.52-6.12-6.27s2.21-6.71,5.83-6.71c4.06,0,5.14,3.57,5.14,5.86,0,.46-.05.82-.08,1.05h-8.74ZM468.19,197.43c.03-1.44-.59-3.67-3.13-3.67-2.29,0-3.29,2.11-3.47,3.67h6.6Z"/>
      <path class="cls-30" d="M252.86,223.25l2.72,7.35c.28.82.59,1.8.8,2.54h.05c.23-.75.49-1.7.8-2.6l2.47-7.3h2.39l-3.39,8.87c-1.62,4.26-2.72,6.45-4.27,7.79-1.1.98-2.21,1.36-2.78,1.46l-.57-1.9c.57-.18,1.31-.54,1.98-1.1.62-.49,1.39-1.36,1.9-2.52.1-.23.18-.41.18-.54s-.05-.31-.15-.59l-4.6-11.46h2.47Z"/>
      <path class="cls-30" d="M269.82,235.69v-10.71h-1.75v-1.72h1.75v-.67c0-3.29,1.93-5.42,5.42-5.42,1.16,0,2.52.36,3.16.82l-.64,1.72c-.54-.39-1.52-.72-2.62-.72-2.39,0-3.08,1.67-3.08,3.65v.62h7.22v12.44h-2.24v-10.71h-4.98v10.71h-2.24Z"/>
      <path class="cls-30" d="M282.72,233.37c.67.44,1.85.9,2.98.9,1.64,0,2.42-.82,2.42-1.85,0-1.08-.64-1.67-2.31-2.29-2.24-.8-3.29-2.03-3.29-3.52,0-2,1.62-3.65,4.29-3.65,1.26,0,2.36.36,3.06.77l-.57,1.64c-.49-.31-1.39-.72-2.54-.72-1.34,0-2.08.77-2.08,1.7,0,1.03.75,1.49,2.36,2.11,2.16.82,3.26,1.9,3.26,3.75,0,2.18-1.7,3.73-4.65,3.73-1.36,0-2.62-.33-3.5-.85l.57-1.72Z"/>
      <path class="cls-30" d="M302.07,235.22c-.59.31-1.9.72-3.57.72-3.75,0-6.19-2.54-6.19-6.35s2.62-6.6,6.68-6.6c1.34,0,2.52.33,3.13.64l-.51,1.75c-.54-.31-1.39-.59-2.62-.59-2.85,0-4.39,2.11-4.39,4.7,0,2.88,1.85,4.65,4.32,4.65,1.29,0,2.13-.33,2.78-.62l.39,1.7Z"/>
      <path class="cls-30" d="M311.6,235.69l-.18-1.57h-.08c-.69.98-2.03,1.85-3.8,1.85-2.52,0-3.8-1.77-3.8-3.57,0-3.01,2.67-4.65,7.48-4.62v-.26c0-1.03-.28-2.88-2.83-2.88-1.16,0-2.36.36-3.24.92l-.51-1.49c1.03-.67,2.52-1.11,4.09-1.11,3.8,0,4.73,2.6,4.73,5.09v4.65c0,1.08.05,2.13.21,2.98h-2.06ZM311.27,229.34c-2.47-.05-5.27.38-5.27,2.8,0,1.46.98,2.16,2.13,2.16,1.62,0,2.65-1.03,3.01-2.08.08-.23.13-.49.13-.72v-2.16Z"/>
      <path class="cls-30" d="M317.1,217.44h2.26v18.24h-2.26v-18.24Z"/>
      <path class="cls-30" d="M328.3,233.37c.67.44,1.85.9,2.98.9,1.64,0,2.42-.82,2.42-1.85,0-1.08-.64-1.67-2.31-2.29-2.24-.8-3.29-2.03-3.29-3.52,0-2,1.62-3.65,4.29-3.65,1.26,0,2.36.36,3.06.77l-.57,1.64c-.49-.31-1.39-.72-2.54-.72-1.34,0-2.08.77-2.08,1.7,0,1.03.75,1.49,2.36,2.11,2.16.82,3.26,1.9,3.26,3.75,0,2.18-1.7,3.73-4.65,3.73-1.36,0-2.62-.33-3.5-.85l.57-1.72Z"/>
      <path class="cls-30" d="M341.3,219.75c.03.77-.54,1.39-1.44,1.39-.8,0-1.36-.62-1.36-1.39s.59-1.41,1.41-1.41,1.39.62,1.39,1.41ZM338.79,235.69v-12.44h2.26v12.44h-2.26Z"/>
      <path class="cls-30" d="M344.8,226.62c0-1.29-.03-2.34-.1-3.37h1.98l.1,2h.08c.69-1.18,1.85-2.29,3.91-2.29,1.7,0,2.98,1.03,3.52,2.49h.05c.38-.69.87-1.23,1.39-1.62.75-.57,1.57-.87,2.75-.87,1.64,0,4.09,1.08,4.09,5.4v7.32h-2.21v-7.04c0-2.39-.87-3.83-2.7-3.83-1.29,0-2.29.95-2.67,2.06-.1.31-.18.72-.18,1.13v7.68h-2.21v-7.45c0-1.98-.87-3.42-2.6-3.42-1.41,0-2.44,1.13-2.8,2.26-.13.33-.18.72-.18,1.11v7.5h-2.21v-9.07Z"/>
      <path class="cls-30" d="M366.23,227.31c0-1.59-.05-2.88-.1-4.06h2.03l.1,2.13h.05c.92-1.52,2.39-2.42,4.42-2.42,3.01,0,5.27,2.54,5.27,6.32,0,4.47-2.72,6.68-5.65,6.68-1.64,0-3.08-.72-3.83-1.95h-.05v6.76h-2.24v-13.46ZM368.46,230.62c0,.33.05.64.1.93.41,1.57,1.77,2.65,3.39,2.65,2.39,0,3.78-1.95,3.78-4.81,0-2.49-1.31-4.62-3.7-4.62-1.54,0-2.98,1.11-3.42,2.8-.08.28-.15.62-.15.93v2.13Z"/>
      <path class="cls-30" d="M380.85,217.44h2.26v18.24h-2.26v-18.24Z"/>
      <path class="cls-30" d="M389.43,219.75c.03.77-.54,1.39-1.44,1.39-.8,0-1.36-.62-1.36-1.39s.59-1.41,1.41-1.41,1.39.62,1.39,1.41ZM386.91,235.69v-12.44h2.26v12.44h-2.26Z"/>
      <path class="cls-30" d="M393.16,235.69v-10.71h-1.75v-1.72h1.75v-.67c0-3.29,1.93-5.42,5.42-5.42,1.16,0,2.52.36,3.16.82l-.64,1.72c-.54-.39-1.52-.72-2.62-.72-2.39,0-3.08,1.67-3.08,3.65v.62h7.22v12.44h-2.24v-10.71h-4.98v10.71h-2.24Z"/>
      <path class="cls-30" d="M415.23,235.22c-.59.31-1.9.72-3.57.72-3.75,0-6.19-2.54-6.19-6.35s2.62-6.6,6.68-6.6c1.34,0,2.52.33,3.13.64l-.51,1.75c-.54-.31-1.39-.59-2.62-.59-2.85,0-4.39,2.11-4.39,4.7,0,2.88,1.85,4.65,4.32,4.65,1.29,0,2.13-.33,2.78-.62l.39,1.7Z"/>
      <path class="cls-30" d="M424.76,235.69l-.18-1.57h-.08c-.69.98-2.03,1.85-3.8,1.85-2.52,0-3.8-1.77-3.8-3.57,0-3.01,2.67-4.65,7.48-4.62v-.26c0-1.03-.28-2.88-2.83-2.88-1.16,0-2.36.36-3.24.92l-.51-1.49c1.03-.67,2.52-1.11,4.09-1.11,3.8,0,4.73,2.6,4.73,5.09v4.65c0,1.08.05,2.13.21,2.98h-2.06ZM424.43,229.34c-2.47-.05-5.27.38-5.27,2.8,0,1.46.98,2.16,2.13,2.16,1.62,0,2.65-1.03,3.01-2.08.08-.23.13-.49.13-.72v-2.16Z"/>
      <path class="cls-30" d="M441,217.44v15.03c0,1.1.03,2.36.1,3.21h-2.03l-.1-2.16h-.05c-.69,1.39-2.21,2.44-4.24,2.44-3.01,0-5.32-2.54-5.32-6.32-.03-4.14,2.54-6.68,5.58-6.68,1.9,0,3.19.9,3.75,1.9h.05v-7.43h2.26ZM438.74,228.31c0-.28-.03-.67-.1-.95-.33-1.44-1.57-2.62-3.26-2.62-2.34,0-3.73,2.06-3.73,4.8,0,2.52,1.23,4.6,3.67,4.6,1.52,0,2.9-1,3.32-2.7.08-.31.1-.62.1-.98v-2.16Z"/>
      <path class="cls-30" d="M451.64,235.69l-.18-1.57h-.08c-.69.98-2.03,1.85-3.8,1.85-2.52,0-3.8-1.77-3.8-3.57,0-3.01,2.67-4.65,7.48-4.62v-.26c0-1.03-.28-2.88-2.83-2.88-1.16,0-2.36.36-3.24.92l-.51-1.49c1.03-.67,2.52-1.11,4.09-1.11,3.8,0,4.73,2.6,4.73,5.09v4.65c0,1.08.05,2.13.21,2.98h-2.06ZM451.3,229.34c-2.47-.05-5.27.38-5.27,2.8,0,1.46.98,2.16,2.13,2.16,1.62,0,2.65-1.03,3.01-2.08.08-.23.13-.49.13-.72v-2.16Z"/>
    </g>
  </g>
  <g class="cls-43">
    <g class="cls-21">
      <path class="cls-27" d="M89.89,191.99c3.93.27-1.28,3.52-3.42,4.42l-.51,1.03c1.24,2.75,4.77,3.82,4.12,6.21,3.53,2.48,17.98,7.9,13.53,16.92l1.6,3.99.68-1.22c4.25-.94,8.25-2.55,12.01-4.82l.87-.71,1.68-1.01c6.38-3.13,12.79-6.35,18.2-11.02l2.31-.38,13.4,9.89c-1.27,3.24-26.74,18-31.28,20.13-10.62,4.97-16.54,7.72-28.09,3.5-17.21-6.29-43.42-23.46-54.91-37.69-11.04-13.69-15.39-29.3-14.7-46.93.64-.72,3.89,2.88,4.48,3.49,9.76,10.18,18.74,21.38,28.7,31.33,9.19,9.18,20.47,9.79,31.31,2.86"/>
      <path class="cls-24" d="M52.25,148.59c3.59.83,6.71,4.2,7.66,7.67l1.61-.18c10.75,12.84,15.4,13.21,27.17,1.97l6.86-7.3,1.38.4c2.13-2.09,12.91,1.26,13.56,3.46.89,3.01-9.21,12.4-12.71,12.43.89,2.77-.48,4.6-4.11,5.49-2.06,4.26-6.39,10.69-10.81,12.76-2.64,1.24-13.04,2.85-13.93-1.37-2.48-.96-3.71-1.43-6.96-4.31-2.79-2.91-18.13-19.02-24.42-25.9-1.43-1.83,2.11-4.21,3.72-5.22,3.72-2.31,7.64-3.42,10.96.11"/>
      <path class="cls-37" d="M59.28,27.87c3.68-.83,7.4,8.82,7.02,11.5.19.34.19.73.09,1.1-.37,1.37-14.62,17.49-16.24,18.53l-2.36.81c2.39-1.45,9.44-1.84,12.18-1.28l.91,1.28c.01-1.24,1.09-2.02,3.24-2.33,1.8-3.44,2.34-7.38,1.6-11.82l1.22-1.17c3.55,1.32,6.52,4.21,8.59,7.49,1.58,2.06,2.11.56,1.61-4.51-.93-1.54,0-13.35.61-13.65.58-.28,1.04-.5,1.62-.14.25,8.52.15,17.02-.3,25.5-.9,5.27-2.62,8.95-7.66,11.5-9.12,1.38-18.36,1.78-27.72,1.19-4.7,2.76-7.39,2.64-11.87-.96-3.45-.57-5.5-2.31-5.46-4.87.35-1.29.68-2.25,1.31-3.66,3.88-8.79,24.03-26.56,31.61-34.49"/>
      <path class="cls-2" d="M196.57,67.47v-.64l-.22-1.01c-.07-.32.02-.65.24-.89,4.69-5.05,9.74-13.56,3.55-19.09-.21-.18-.34-.44-.34-.72l-.04-1.28-.81.4c-3.85-3.85-8.92-3.62-13.94-2.43-.17.04-.33.13-.46.25-9.06,8.43-17.85,17.46-25.8,27.03-.2.24-.51.38-.82.36l-.33-.02c-.38-.02-.73.18-.92.51-1.43,2.47-3.28,4.32-5.56,5.57-.32.17-.53.5-.53.86v.5c-.01.27-.13.53-.33.71-2.05,1.87-3.88,3.96-5.49,6.26-.23.32-.61.49-1,.41-.47-.09-.94.16-1.11.6-.19.48-.39.96-.64,1.41-1.86,3.5-17.02,18.89-20.55,21.02-.47.29-.97.54-1.47.77-.41.19-.65.61-.58,1.05l.05.38c.04.31-.06.62-.28.84l-10.2,10.39c-.1.1-.18.23-.23.37-1.02,3.06-2.58,5.56-4.68,7.47-.09.08-.19.14-.3.19-2.69,1.11-4.89,2.61-6.58,4.49-.67.74.03,1.94.98,1.65,2-.6,3.12.32,3.37,2.77.03.31.2.59.46.76,2.24,1.48,3.11,2.95,2.62,4.42-.72,3.51-3.95,7.25-7.41,8.24-.17.05-.32.13-.44.25-3.96,4.11-13.15,14.96-18.06,15.74-9.79,1.56-12.89-4.94-18.8-10.82-1.92-2.34-1.02-4,1.01-5.75.12-.1.21-.23.27-.37l2.74-6.49c.13-.3.4-.52.72-.59l1.02-.21h.64c1.29,1.6,3.03,3.55,4.5,5.23,1.36,1.56,3.15,4.36,5.49,3.51.15-.05.27-.15.38-.26,19.22-20.69,94.19-101.03,105.52-110.06,13.41-10.68,32.1,6.95,19.21,21.23-1.59,1.76-3.35,3.4-4.83,4.98"/>
      <path class="cls-26" d="M103.34,18.28c1.36.38,7.55,8.09,10.11,11.75.4.57,1.14.66,1.78.4,0,0,0,0,.01,0,.59-.23,10.4-.16,13.31-.04.42.02.81.22,1.05.57l.54.75c-3.94.83-8.2,1.25-12.77,1.28h-36.39c-.72,0-1.33.56-1.37,1.29-.39,7.34.05,14.66-.32,22.06-.06,1.2-.16,2.44-.23,2.85l-1.04-4.76c-.08-.34-.28-.64-.57-.84-1.12-.76-4.07-2.81-5.78-4.57-1.39-1.43-3.58-1.74-4.63-4.23-.08-.18-.11-.4-.1-.6.16-3.53-.24-4.15-.65-4.8.17-.18-1.06,1.69-1.4,1.02-1.57-3.15-2.19-5.66-4.6-9.2-.32-.48-.54-1.68-.79-2.59-.13-.48-1.09,0,.38-1.34.23-.21.41-.39.41-.39,0,0,2.89-2.78,3.37-3.37.08-.1.17-.18.27-.25,4.21-3.08,8.42-4.72,13.7-5.47,2.94-.41,24.02-1.15,25.06-.34.27.21.46.51.63.85"/>
      <path class="cls-22" d="M36.29,117.29c1.48.38,2.69,1.12,3.02,2.69,5.35-.25,16.3,7.09,7.45,10.74-1.31,1.81-2.51,3.46-4.56,4.52,4.18,4.08,7.53,8.53,10.04,13.34-5.13-2.94-11.55.76-14.69,5.11-5.21-5.7-14.75-12.8-15.35-20.73-.68-8.95,4.98-15.79,14.07-15.68"/>
      <path class="cls-13" d="M140.99,205.46c-6.27,5.97-14.06,9.61-21.69,13.39,0,0,0,0,0,0l-1.67.52s-.02,0-.02,0c-4.37-3.4-9.43-7.53-12.34-12,0,0-.01,0-.02-.01v-3.19s.02,0,.02-.01c0-10.02,3.86-5.41,8.01-5.79,0,0,0,0,.01,0,4.14-2.57,8.51-4.65,13.11-6.24.01,0,.02-.02.01-.04-3.25-6.74-5.66-14.2-7.05-21.62,0,0,0,0,0-.01,1.87-7.7-1.33-6.33-9.6,4.12-1.47,2.1-3.59,2.81-5.11,2.13,0,0-.03,0-.02,0,.37-.11,11.27-12.68,14.68-15.99.89-.86,2.14-1.74,3.14-2.52.02-.01.04,0,.04.02-1.37,17.95,5.51,34.95,18.51,47.19.01.01.01.03,0,.04"/>
      <path class="cls-32" d="M71.41,70.66c-7.65,3.87-19.34,1.02-27.84,1.88-.89.09-.91.05-1.53.67-1.76,1.77.02,31.09-.64,35.77-4.6-.96-8.31-.83-12.77.64-2.43.63-3.37.17-3.4-1.63-.21-12.87-.85-24,.26-37.52.09-1.06.72-3.9.87-4.46.99.76,4.02,2.73,6.04,3.74,2.04,1.02,3.07,2.8,6.16,2.86,1.95.04,2.69-1.12,4.4-1.36,5.96-.84,14.18.46,20.51.08,2.24-.13,5.53-1.99,7.94-.69"/>
      <path class="cls-14" d="M105.25,176.69c.45-.1,1.26.12,1.28.43.19,3.61.02,23.97-1.04,25.41-.14.19.01,1.51-.23,1.62v3.19l1.28,1.85v14.47l-1.28.93c-.93-.18-7.17-5.17-7.51-5.52-.73-.75-3.43-4.2-4.99-6.69-.31-.49-6.56-8.71-6.6-9.82-.06-1.95-1.79-3.35-1.36-5.74.36-1.99,3.76-2.49,5.18-3.91.65-.65-.08-.87-.04-.9,6.92-6.24,8.13-7.17,14.69-15.33h.64Z"/>
      <path class="cls-20" d="M105.5,108.69c-2.19,2.13-5.14,4.96-6.47,5.79-.26.16-.56.24-.86.25-13.18.23-24.24.14-38.57,0-4.54-.04-5.08-3.25-5.13-4.76-.05-1.47,1.19-3.36,2.93-4.06.2-.08,1.08-.19,1.29-.19,15.43.1,30.19-.11,45.62.05.01,0,.02,0,.03,0,1.51.02,2.24,1.85,1.16,2.91"/>
      <path class="cls-39" d="M112.92,134.54l1.46-.36c4.09,4.13,10.04,8.23,14.23,1.85,1.98-.56,3.27-.08,1.55,1.7-4.71,4.7-9.18,9.5-14.05,14.05-1.62,1.97-3.33,3.88-5.11,5.75-7.65,7.75-14.65,16.29-22.33,23.97-6.37,6.36-13.4,9.56-21.69,3.77-1.78-1.24-3.05-3.34-4.51-4.75-6.22-6.97-6.22-7.4,0-1.28,3.26,2.54,4.28,2.11,7.03,3.52.91.46.89,1.73,1.76,2.22,2.68,1.51,5.09-.09,7.58-.4.81-.1,1.78.47,2.93.3,2.13-.32,6.09-4.85,7.4-6.7,1.18-1.67,2.78-5.75,3.64-6.58,1.01-.97,3.24-.94,3.86-1.93.71-1.13-.79-3.43-.37-3.83.09-.09,1.75,0,2.55-.31,2.68-1.04,12.39-7.96,10.17-11.14-.36-.52-10.61-3.5-12.08-3.25,2.61-2.68,5.07-5.61,7.66-8.3l1.61-2.23s1.04-.36,4.13-3.52c-.42-2.04.52-2.98,2.55-2.55"/>
      <path class="cls-35" d="M60.55,136.45c1.74,2.14,5.75,6.39,5.75,6.39l-4.19,8.26c-1.67,1.55-2.64,2.68-2.2,5.15-2.59-2.58-5.17-4.95-7.66-7.67-3.93-4.28-7.8-8.62-11.46-13.15-.26-1.1,2.03-1.91,2.88-2.79.88-.92,1.06-1.92-.44-5.14-1.71-3.67-4.14-6.87-4.14-6.87l-3.6-3.34c1.87.02,3.8,0,5.64.59,5.27,1.7,15.08,14.01,19.43,18.56"/>
      <path class="cls-23" d="M58.6,86.15c.61-.08,1.36-.14,2.48-.25l12.92,6.5,1.25,1.26c13.82-1.45,27.73-1.86,41.71-1.21,1.5-1.02,3.09-1.14,4.01-.16-.78,1.36-2.17,2.71-3.87,2.68-19.33-.44-38.45-.5-58.07-.43-.89,0-1.78-.18-2.59-.55-.67-.31-1.36-.73-1.63-1.26-.35-.68-.48-1.39-.47-2.08.05-2.34,1.94-4.22,4.26-4.5"/>
      <path class="cls-44" d="M57.36,86.63c1.12-.4,1.57-.66,2.83-.67,17.76-.07,66.53.06,66.27.33l-2.57,2.93c-.12.14-.3.22-.48.21-16.12-.31-32.4-1.27-48.69-1.34-.06,0-.12-.01-.18-.03l-1.61-.51c-.53-.17-1.1.02-1.43.46-.25.33-.64.53-1.05.52l-11.66-.16c-.15,0-.3-.06-.42-.17l-1.01-.93v-.64Z"/>
      <path class="cls-6" d="M196.57,67.47c-20.79,22.09-41.8,44.01-62.57,66.12-.21,1.57.43.78,1.32.68,2.9-.32,8.1-.99,10.81-1.65,1.85-.48,2.39-.07,1.61,1.23,2.92,1.06,5.18,2.76,6.78,5.09l-.73,1.34c-3.97,1.27-8.13,2.61-12.46,4.01-.18,4.32-1.06,13.44-5.72,5.51l-3.88-2.02c.05-4.1-.27-7.44-.93-10.05-.02-.4-.25-.55-.31-.64l-.65-.63c-5.31,7.88-11.71,3.23-16.92-1.92,4.08-7.16,10.27-14.13,17.24-18.52.47-1.45,1.14-2.8,2.1-3.98,4.6-5.65,12.64-10.47,17.04-16.14,1.9-2.45,2.15-1.67,5.12-4.79-.42-2.04.52-2.98,2.55-2.55l1.58-.91c3.49,1.45,6.96,3.02,10.4,4.71-.12-2.93,1.97-4.72,6.27-5.35,5.67-6.75,12-13.07,18.64-19.19l2.7-.98v.64Z"/>
      <path class="cls-39" d="M130.8,137.73c.1.03.96-1.24,1.28.96.27,1.88-.5,6.76.13,7.85.31.54,3.59,1.63,4.31,2.39.74.77.81,2.42,1.63,2.85,2.96-.89,1.88-4.72,2.24-6.69.6-3.29,10.39-3.59,13.4-4.8,1.04-.92,1.44-.54.64.64-.23.42-.49.82-.8,1.16-.3.33-.6.62-.94.73-3.29,1.05-6.79,1.99-10.18,2.4.4,5.31.5,10.7.29,16.17-.75,16.94,9.83,30.94,24.85,37.02,6.1-2.32,11.56-5.99,16.39-11.02l1.85-.24.91,1.28c-1.3,2.12,2.32,7.43,4.08,5.27,1.34-1.83,5.34-5.49,4.44-1.68-5.25,6.69-11.6,12.29-19.14,16.3-5.89,3.13-6.81,4.41-13.21,1.7-8.42-3.56-19.23-12.1-24.35-19.71-10.93-16.25-7.21-34.08-7.78-52.58"/>
      <path class="cls-12" d="M176.22,126.75c9.05,2.84,12.42,4.44,18.19,6.36.02,0,.04.01.06.02,3.36,1.27,7.16,2.52,8.64,2.95.37.11.65.41.72.79.96,5.23,1.2,22.37.99,24.73,0,.1.05.37.04.47-.22,6.08-.47,9.59-2.16,15.15-.2.65-.96.94-1.53.59-4.15-2.54-5.02-5.34-5.18-9.46-.03-.72-.75-1.2-1.41-.92-.01,0-.02.01-.04.02-.3.12-.64.09-.91-.07l-.38-.22c-.32-.18-.51-.52-.51-.89l-.06-20.07c0-.47-.32-.87-.77-.99-7.92-2.05-16.12-4.64-23.45-8.72-.28-.16-.62-.17-.91-.04l-10.71,4.78c-.22.1-.48.12-.71.05l-1.7-.5c.06-.47-.6-.55-.64-.64-1.94-4.08-5.4-4.07-8.3-6.4-.98-.79,4.02-.63.63-1.27,2.42-.59,6.14-2.23,8.53-3.28,2.73-1.2,10.61-6.05,12.39-6.36,3.64-.65,5.87,2.35,9.01,3.86.05.02.11.05.16.06"/>
      <path class="cls-9" d="M194.08,167.44c.26-1.17.63-2.3.7-3.57.05-.79,1.02-1.19,1.55-.61,2.54,2.7.36,6.42,1.12,8.99.84,2.82,7.13-.06,4.86,6.29-.02.05-.01.1-.03.15-1.46,4.5-3.33,8.89-7,13.34.07-.29-.11-.68-.32-.63-1.06.29-3.61,4.76-5.66,4.36-.77-.15-3.67-3.61-3.93-4.41-.25-.76-.11-2.08.12-3.06.12-.5,0-1.02-.29-1.44-.22-.32-.22-.74,0-1.05,3.58-5.07,5.97-10.56,7.17-16.47.04-.21.15-.39.32-.52.29-.23.76-.61,1.05-.84.16-.13.27-.31.32-.51"/>
      <path class="cls-33" d="M183.8,121.76c-.21,0-.43,0-.64,0l-12.75-7.36-5.76-.61,19.78-20.13-.63,28.11Z"/>
      <path class="cls-29" d="M174.22,37.45c-1.19,1.37-16.23,15.47-15.96,15.33v-16.29c0-1.75-3.8-3.34-5.41-3.53-10-1.19-24.87.01-35.46.02l12.77-1.28h-15.64c-.34,0-10.55-11.4-11.17-13.41l3.44-.87c17.16.27,34.33.4,51.48.24,10.02-.4,16.43,10.78,15.96,19.8"/>
      <path class="cls-34" d="M77.79,17.01c16.71-.34,66.21-.08,76.82-.01,1.33,0,2.65.15,3.96.42l3.44.64c-18.18.73-40.34.08-58.68.23-9.95.08-26.13-1.65-34.69,2.67-2.52,1.27-2.03,1.78-4.9,2.44,0,0,4.79-6.09,14.05-6.39"/>
      <path class="cls-42" d="M144.84,53.42l-1.91,1.16c-15.11.64-30.29.79-45.53.48-3.89-.66-3.91-6.54-.2-7.31,12.31-.39,24.63-.32,36.93-.17l1.78-.54c4.24.13,12.53-.69,8.94,6.39"/>
      <path class="cls-45" d="M138.46,66.83c2.09-.11,4.23.04,6.33.02.31,0,.49.34.31.6-.91,1.29-2.21,2.23-3.42,3.2-.01.01-.03.02-.04.04-1.75,1.96-3.67,3.26-5.75,3.91-.04.01-.07.02-.11.02-11,.41-22.01.58-33.03.5-8.73.07-16.33-4.9-4.28-7.94.03,0,.06-.01.09-.01l39.91-.33Z"/>
      <path class="cls-28" d="M125.05,87.91c-1.42,1.68-2.46,2.52-4.08,4.38-.13.15-3.01,1.09-3.87,1.41-13.95-.13-27.92.04-41.86-.04-2.18-.28-4.65-4.68-3.19-6.39,16.21-.17,33.37-.59,49.52-.03,1.21.04,2.42-.06,3.48.67"/>
      <path class="cls-4" d="M135.9,47.03c-.66,1.08-1.73,1.19-2.86,1.29-6.14.57-12.6-.73-18.53-.72-5.56,0-11.41,1.28-17.1.7-2.08,2.08-2.52,4.33.2,6.06l42.48.36,4.76-1.31c-.74,1.47-1.2,1.96-2.84,1.95-7.68-.04-17.46-.14-24.96-.06-5.74.06-11.61.21-17.72-.02-6.08-.22-9.28-2.44-6.95-6.39.75-1.27,2.44-1.7,3.59-1.7,13.12.01,26.85-.58,39.95-.17"/>
      <path class="cls-18" d="M138.46,66.83c-12.82.66-25.92.8-38.93.66-.66,0-1.31.16-1.89.46-7.11,3.76-5.46,5.98,2.8,6.56,7.08.5,31.06.92,36.93-.79,1.27-.37,2.26-2.39,3.35-3.14.7-.48.89.11.93.08-1.4,1.72-3.06,4.3-5.39,4.51-14.74-.23-25.03.08-40.27-.02-3.8-.02-4.89-3.44-3.96-5.9.56-1.47,2.04-2.4,3.62-2.4l42.81-.02Z"/>
      <path class="cls-10" d="M120.09,218.46c-.81.47-1.43,1.02-2.12,1.34-2.84,1.36-9.96,5.34-12.72,4.8v-17.25c5.47,2.9,9.37,8.36,14.84,11.11"/>
      <path class="cls-3" d="M66.94,44.47c.13,3.54.96,12.17-2.19,14.09-.45.27-3.54,1.24-3.87,1.24h-13.09l18.52-20.44c1.17,1.3.57,3.4.64,5.11"/>
      <path class="cls-16" d="M199.76,43.83c-.95,1.77-1.95,3.55-3.33,5.02-11.44,12.12-22.94,24.26-34.47,36.3-.68.71-1.5,1.28-2.33,1.85-.84.57-1.74,1.07-2.65,1.55-.82.86-1.71,1.67-2.55,2.56-.33,1.08,0,0-1.28.64h-1.6c-2.17-2.91-4.15-4.24-7.81-3.79-2.62-.77-2.13-1.96-.81-3.87,2.16-2.24,4.37-6.54,7.66-8.3,2.7-1.36,4.83-3.49,6.39-6.39,2.32-3.93,10.1-11.61,13.72-15.34,2.45-2.52,11.29-12.19,13.5-13.32,1.96-1.01,8.43-1.08,10.64-.59,2.09.47,3.52,2.37,4.92,3.7"/>
      <path class="cls-17" d="M196.57,66.83c-4.36,4.74-9.53,9.08-14.06,13.72-1.85,1.89-5.21,6.87-7.29,8.04-1.6.9-3.39.31-4.24.87-.98.65-.2,3.21-1.18,3.93-2.04,1.5-9.79-5.26-12.82-4.84,14.24-14.9,27.86-30.46,42.78-44.71,1.19,1.12,2.51,1.69,3.33,3.38,3.59,7.43-1.74,14.42-6.52,19.62"/>
      <path class="cls-8" d="M130.16,116.01c-5.83,6.08-11.4,12.46-17.24,18.52-.82.85-1.65,1.84-2.5,2.71,0,0-4.65,4.18-5.81,5.59-1.66-2.91-5.42-2.85-4.47-7.03-.83-.93-8.08,5.2-6.78,1.2,2.4-7.4,8.29-7.29,11.54-10.82,1.26-1.36,1.53-4.02,2.61-5.69,1.65-2.53,8.97-9.11,11.79-12.16.74-.09,1.36.29,1.86,1.12,4.6-1.5,12.44,1,9,6.54"/>
      <path class="cls-15" d="M142.93,84.08c-.82,4.11,10.38,4.39,13.2,5.33,0,0-19.53,19.89-25.97,26.61.85-3.11-2.12-5.44-4.85-5.74-2.52-.28-5.32,2.16-6-1.92,7.67-8.33,16.06-16.41,23.63-24.27"/>
      <path class="cls-15" d="M156.98,69.38c-1.7,2.89-1.82,6.16-6.39,6.39l6.39-6.39Z"/>
      <path class="cls-41" d="M105.25,198.78v-21.8c0-.17.09-.33.24-.42,3.89-2.29,9.33-10.77,12.55-12.35.79-.39,2.04.11,2.54.66,1.56,1.74-.1,3.34,0,5.09.28,4.61,3.79,13.35,5.28,18.37.4,1.34,1.93,2.22,1.77,4.01-.16,1.82-5.96,2.76-7.87,3.67-1.92.91-3.59,2.52-6.04,3.54-1.49.62-5.25-.15-6.23.43,0,0-2.24,4.36-2.24,4.17,0-1.39,0-3.41,0-5.37"/>
      <path class="cls-24" d="M120.58,143.49c-.27.78-3.14,3.87-3.83,3.18-.75-.76,2.43-3.93,3.83-3.18"/>
      <path class="cls-36" d="M72.05,87.27l3.19,6.39c-4-.02-15.14.79-18.06,0-1.59-.43-2.85-5.63.18-6.4,2.7-.68,11.16.04,14.69,0"/>
      <path class="cls-38" d="M154.42,140.92c4.92-1.67,8.85-4.08,13.68-5.74,8.22,4.04,16.71,7.64,25.85,9l.06,23.13c0,.29-.03.58-.09.87-.57,2.85-1.15,5.77-2.16,8.5-1.37,3.71-4.43,8.52-6.01,10.8-.03.05-.06.08-.11.12-3.24,3.13-13.89,12.35-18.09,12.07-4.01-.26-14.53-8.88-17.3-12.12-11.08-12.98-8.47-27.12-8.64-43.03,4.22-1.34,8.59-2.18,12.8-3.6"/>
      <path class="cls-7" d="M183.8,118.25c-.32,1.06-1.75,1.05-2.7.82-1.16-.28-9.37-4.79-10.9-5.73-1.63-1.01-1.36-1.94-.48-3.43.59-1,6.31-6.84,7.68-8.29.81-.85,4.6-4.87,5.12-5.1.69-.3,1.28.49,1.28.64v21.08Z"/>
      <path class="cls-40" d="M163.36,158.17c.27.56.19,1.42.7,2.15,2.47,3.53,11.8,2.08,15.56,8.1,2.57,4.12.75,10.03-3.27,12.64-1.55,1-5.69,1.85-5.9,2.08-.46.53.26,4.73-.06,5.05-.18.18-4.94.18-5.11,0-.28-.28.47-3.45-.28-4.51-1.95-2.78-14.62.24-8.01-10.18,3.93,1.35,7.37,3.8,11.83,3.23,2.19-.28,4.34-2.18,3.18-4.51-1.38-2.79-14.66-3.56-15.66-8.94-1.11-3.44-.53-8.19,3.53-8.94,2.27-.42,5.46,1.75,3.5,3.83"/>
      <path class="cls-31" d="M156.62,164.14c-1.56-3.42-1.11-8.81,1.67-11.36,1.44-1.32,6.44-3.14,6.69-3.52.76-1.13.01-4.22.29-4.5.18-.18,4.94-.19,5.11,0,.21.22-.48,2.88.57,4.22.57.73,4.37,1.6,5.81,2.17,3.43.93,2.11,6.24-1.03,6.12-3.44-1.34-6.86-2.24-10.46-1.01-.44.32-1.81,1.12-1.74,2.49-.66-1.36-.89-3.05-3.11-3.14-2.31-.1-1.81,1.54-2.8,2.2-.41.28-1.24-.33-1.28-.28-.15.24.14,5.89.27,6.61"/>
      <path class="cls-25" d="M165.28,156.25c4.44-3.21,9.38,1.36,11.49.35,2.04-.98,1.47-4.13,0-5.46,1.04.41,2.42.34,3.11,1.58-3.03,8.45-3.05,4.39-8.59,3.58-1.93-.28-4.05.07-6.01-.06"/>
    </g>
  </g>
</svg>