<?xml version="1.0" encoding="UTF-8"?>
<svg id="Capa_1" xmlns="http://www.w3.org/2000/svg" version="1.1" xmlns:xlink="http://www.w3.org/1999/xlink" viewBox="0 0 620 256">
  <!-- Generator: Adobe Illustrator 29.5.1, SVG Export Plug-In . SVG Version: 2.1.0 Build 141)  -->
  <defs>
    <style>
      .st0 {
        fill: #0a566d;
      }

      .st1 {
        fill: #f4aa2b;
      }

      .st2 {
        fill: #b0cdd2;
      }

      .st3 {
        fill: #186e7c;
      }

      .st4 {
        fill: #fdfefe;
      }

      .st5 {
        fill: #eb9508;
      }

      .st6 {
        fill: #0c8394;
      }

      .st7 {
        fill: #f5ac22;
      }

      .st8 {
        fill: #ef9b0b;
      }

      .st9 {
        fill: #1b6e83;
      }

      .st10 {
        fill: #11729b;
      }

      .st11 {
        fill: #f7aa14;
      }

      .st12 {
        fill: #1f7b8d;
      }

      .st13 {
        fill: #065f75;
      }

      .st14 {
        fill: #f8ad1b;
      }

      .st15 {
        fill: #f8ad18;
      }

      .st16 {
        fill: #ef9d09;
      }

      .st17 {
        fill: #1c6c7a;
      }

      .st18 {
        fill: none;
      }

      .st19 {
        fill: #0a697e;
      }

      .st20 {
        clip-path: url(#clippath-1);
      }

      .st21 {
        fill: #ea930f;
      }

      .st22 {
        fill: #0e5969;
      }

      .st23 {
        fill: #e88c0a;
      }

      .st24 {
        fill: #e3b04a;
      }

      .st25 {
        fill: #0b778b;
      }

      .st26 {
        fill: #07576f;
      }

      .st27 {
        fill: #0a7186;
      }

      .st28 {
        fill: #128192;
      }

      .st29 {
        fill: #f0a212;
      }

      .st30 {
        fill: #06647b;
      }

      .st31 {
        fill: #237b87;
      }

      .st32 {
        fill: #106d7a;
      }

      .st33 {
        fill: #ef9b16;
      }

      .st34 {
        fill: #05677d;
      }

      .st35 {
        fill: #086c81;
      }

      .st36 {
        fill: #fefefd;
      }

      .st37 {
        fill: #e88e0b;
      }

      .st38 {
        fill: #eb960d;
      }

      .st39 {
        fill: #147c90;
      }

      .st40 {
        fill: #128092;
      }

      .st41 {
        clip-path: url(#clippath);
      }

      .st42 {
        fill: #0d5969;
      }

      .st43 {
        fill: #127c8e;
      }
    </style>
    <clipPath id="clippath">
      <rect class="st18" x="-.31" y="4.01" width="221.58" height="247.2"/>
    </clipPath>
    <clipPath id="clippath-1">
      <rect class="st18" x="-.31" y="4.01" width="221.58" height="247.2"/>
    </clipPath>
  </defs>
  <path class="st4" d="M499.27,229.94c-.19.82-.92,1.3-1.71,1.13v-1.13s1.71,0,1.71,0Z"/>
  <g>
    <path class="st10" d="M321.42,35.2c0,1.65-.08,3.05-.25,4.18-.17,1.13-.43,2.03-.79,2.69-.36.66-.78,1.16-1.24,1.49-.46.33-.99.5-1.58.5h-41.84v28.78h39.27c.59,0,1.12.14,1.58.41.46.28.87.74,1.24,1.41.36.66.63,1.54.79,2.65.16,1.1.25,2.48.25,4.13s-.08,3.03-.25,4.13c-.17,1.1-.43,2.01-.79,2.73-.36.72-.78,1.23-1.24,1.53-.46.3-.99.45-1.58.45h-39.27v39.86c0,.61-.2,1.13-.59,1.57-.4.44-1.11.81-2.13,1.12-1.02.3-2.36.54-4.01.7-1.65.17-3.76.25-6.33.25s-4.6-.08-6.28-.25c-1.68-.17-3.02-.4-4.01-.7-.99-.3-1.7-.68-2.13-1.12-.43-.44-.64-.96-.64-1.57V33.13c0-2.43.74-4.18,2.23-5.25,1.48-1.08,3.31-1.61,5.49-1.61h60.23c.59,0,1.12.15,1.58.45.46.3.87.8,1.24,1.49.36.69.63,1.61.79,2.77.16,1.16.25,2.56.25,4.22Z"/>
    <path class="st10" d="M410.74,130.73c0,.77-.33,1.38-.99,1.82-.66.44-1.7.76-3.12.95-1.42.19-3.51.29-6.28.29-2.97,0-5.13-.1-6.48-.29-1.35-.19-2.31-.51-2.87-.95-.56-.44-.84-1.05-.84-1.82v-5.87c-3.63,3.25-7.76,5.79-12.41,7.61-4.65,1.82-9.81,2.73-15.48,2.73-4.68,0-8.98-.51-12.91-1.53s-7.32-2.54-10.19-4.55c-2.87-2.01-5.09-4.51-6.68-7.48s-2.37-6.45-2.37-10.42c0-4.3,1-8.04,3.02-11.21,2.01-3.17,5.01-5.79,9-7.86,3.99-2.07,8.95-3.6,14.89-4.59,5.94-.99,12.82-1.49,20.67-1.49h8.61v-4.47c0-2.32-.28-4.34-.84-6.08s-1.48-3.18-2.77-4.34c-1.29-1.16-3-2.01-5.14-2.56-2.14-.55-4.8-.83-7.96-.83-4.15,0-7.86.39-11.13,1.16-3.27.77-6.15,1.63-8.65,2.56-2.51.94-4.6,1.79-6.28,2.56-1.68.77-3.05,1.16-4.1,1.16-.73,0-1.37-.19-1.93-.58-.56-.39-1.02-.94-1.38-1.65-.36-.72-.64-1.6-.84-2.65-.2-1.05-.3-2.2-.3-3.47,0-1.71.16-3.06.5-4.05.33-.99.95-1.89,1.88-2.69.92-.8,2.54-1.68,4.85-2.65,2.31-.96,5.01-1.86,8.11-2.69,3.1-.83,6.48-1.5,10.14-2.03,3.66-.52,7.43-.79,11.33-.79,6.92,0,12.84.57,17.75,1.7,4.91,1.13,8.95,2.87,12.12,5.21,3.17,2.34,5.47,5.36,6.92,9.06,1.45,3.69,2.18,8.08,2.18,13.15v49.62ZM386.31,99.13h-9.49c-4.02,0-7.45.25-10.29.74-2.83.5-5.14,1.24-6.92,2.23-1.78.99-3.08,2.19-3.91,3.6-.83,1.41-1.24,3.02-1.24,4.84,0,3.09,1.17,5.51,3.51,7.28,2.34,1.76,5.59,2.65,9.74,2.65,3.49,0,6.71-.74,9.64-2.23,2.93-1.49,5.92-3.67,8.95-6.53v-12.57ZM377.6,20.48c.46-.61,1.02-1.13,1.68-1.57.66-.44,1.48-.79,2.47-1.03s2.24-.43,3.76-.54c1.52-.11,3.36-.17,5.54-.17,3.03,0,5.42.11,7.17.33,1.75.22,3,.54,3.76.95.76.41,1.1.9,1.04,1.45-.07.55-.4,1.13-.99,1.74l-19.19,19.19c-.53.55-1.06,1.01-1.58,1.36-.53.36-1.2.65-2.03.87-.82.22-1.86.39-3.12.5-1.25.11-2.84.17-4.75.17-2.31,0-4.14-.08-5.49-.25-1.35-.17-2.29-.43-2.82-.79-.53-.36-.74-.81-.64-1.36.1-.55.45-1.19,1.04-1.9l14.14-18.94Z"/>
    <path class="st10" d="M502.32,118.73c0,1.43-.05,2.63-.15,3.6-.1.97-.23,1.78-.4,2.44-.17.66-.36,1.2-.59,1.61-.23.41-.74.94-1.53,1.57-.79.63-2.14,1.41-4.06,2.32-1.91.91-4.09,1.72-6.53,2.44-2.44.72-5.09,1.3-7.96,1.74-2.87.44-5.82.66-8.85.66-6.79,0-12.81-.88-18.05-2.65-5.24-1.76-9.64-4.37-13.21-7.82-3.56-3.44-6.25-7.65-8.06-12.61-1.82-4.96-2.72-10.64-2.72-17.04,0-7.39,1.1-13.77,3.31-19.15,2.21-5.38,5.29-9.83,9.25-13.36,3.96-3.53,8.64-6.15,14.04-7.86,5.41-1.71,11.34-2.56,17.8-2.56,2.64,0,5.23.19,7.76.58,2.54.39,4.91.91,7.12,1.57s4.19,1.41,5.94,2.23c1.75.83,2.98,1.54,3.71,2.15.72.61,1.24,1.12,1.53,1.53.3.41.53.95.69,1.61.16.66.3,1.48.4,2.44.1.97.15,2.14.15,3.52,0,3.2-.33,5.45-.99,6.74-.66,1.3-1.52,1.94-2.57,1.94-1.12,0-2.31-.39-3.56-1.16-1.25-.77-2.74-1.62-4.45-2.56-1.72-.94-3.76-1.79-6.13-2.56-2.37-.77-5.21-1.16-8.51-1.16-6.46,0-11.41,2.08-14.84,6.24-3.43,4.16-5.14,10.27-5.14,18.32,0,3.97.43,7.47,1.29,10.5.86,3.03,2.13,5.57,3.81,7.61,1.68,2.04,3.79,3.57,6.33,4.59,2.54,1.02,5.49,1.53,8.85,1.53s6.38-.43,8.85-1.28c2.47-.85,4.63-1.8,6.48-2.85,1.85-1.05,3.39-2,4.65-2.85,1.25-.85,2.31-1.28,3.17-1.28.59,0,1.09.14,1.48.41.4.28.71.79.94,1.53.23.74.41,1.7.54,2.85.13,1.16.2,2.65.2,4.47Z"/>
    <path class="st10" d="M547.13,31.73c0,4.19-1.02,7.09-3.07,8.68-2.04,1.6-5.84,2.4-11.37,2.4s-9.38-.77-11.33-2.32c-1.95-1.54-2.92-4.33-2.92-8.35s1-7.1,3.02-8.73c2.01-1.63,5.82-2.44,11.42-2.44s9.3.79,11.28,2.36,2.97,4.37,2.97,8.39ZM545.25,130.48c0,.55-.2,1.03-.59,1.45-.4.41-1.07.76-2.03,1.03-.96.28-2.23.48-3.81.62-1.58.14-3.59.21-6.03.21s-4.45-.07-6.03-.21c-1.58-.14-2.85-.34-3.81-.62-.96-.28-1.63-.62-2.03-1.03-.4-.41-.59-.9-.59-1.45V56.87c0-.55.2-1.03.59-1.45s1.07-.77,2.03-1.08c.95-.3,2.22-.54,3.81-.7s3.59-.25,6.03-.25,4.45.08,6.03.25,2.85.4,3.81.7c.95.3,1.63.66,2.03,1.08s.59.9.59,1.45v73.61Z"/>
    <path class="st10" d="M595,130.48c0,.55-.2,1.03-.59,1.45-.4.41-1.07.76-2.03,1.03-.96.28-2.23.48-3.81.62-1.58.14-3.59.21-6.03.21s-4.45-.07-6.03-.21c-1.58-.14-2.85-.34-3.81-.62-.96-.28-1.63-.62-2.03-1.03-.4-.41-.59-.9-.59-1.45V21.72c0-.55.2-1.05.59-1.49.4-.44,1.07-.81,2.03-1.12.95-.3,2.22-.54,3.81-.7s3.59-.25,6.03-.25,4.45.08,6.03.25,2.85.4,3.81.7c.95.3,1.63.68,2.03,1.12.4.44.59.94.59,1.49v108.76Z"/>
  </g>
  <g>
    <path class="st0" d="M307.62,161.8c0,1.31-.07,2.42-.2,3.32-.13.9-.34,1.61-.63,2.14-.29.53-.62.92-.98,1.18-.37.26-.79.39-1.26.39h-33.25v22.87h31.21c.47,0,.89.11,1.26.33.37.22.69.59.98,1.12.29.53.5,1.23.63,2.1.13.88.2,1.97.2,3.29s-.07,2.41-.2,3.29c-.13.88-.34,1.6-.63,2.17-.29.57-.62.98-.98,1.22-.37.24-.79.36-1.26.36h-31.21v31.68c0,.48-.16.9-.47,1.25-.31.35-.88.65-1.69.89-.81.24-1.87.43-3.18.56-1.31.13-2.99.2-5.03.2s-3.66-.06-4.99-.2-2.4-.32-3.18-.56c-.79-.24-1.35-.54-1.69-.89-.34-.35-.51-.77-.51-1.25v-77.1c0-1.93.59-3.32,1.77-4.17,1.18-.85,2.63-1.28,4.36-1.28h47.87c.47,0,.89.12,1.26.36.37.24.69.64.98,1.18.29.55.5,1.28.63,2.2.13.92.2,2.04.2,3.35Z"/>
    <path class="st0" d="M344.57,159.04c0,3.33-.81,5.63-2.44,6.9s-4.64,1.91-9.04,1.91-7.46-.61-9-1.84c-1.55-1.23-2.32-3.44-2.32-6.64s.8-5.64,2.4-6.93c1.6-1.29,4.62-1.94,9.08-1.94s7.39.62,8.96,1.87c1.57,1.25,2.36,3.47,2.36,6.67ZM343.08,237.53c0,.44-.16.82-.47,1.15-.31.33-.85.6-1.61.82-.76.22-1.77.38-3.03.49-1.26.11-2.86.16-4.8.16s-3.54-.06-4.79-.16-2.27-.27-3.03-.49-1.3-.49-1.61-.82c-.31-.33-.47-.71-.47-1.15v-58.5c0-.44.16-.82.47-1.15s.85-.61,1.61-.85c.76-.24,1.77-.43,3.03-.56,1.26-.13,2.86-.2,4.79-.2s3.54.07,4.8.2c1.26.13,2.27.32,3.03.56.76.24,1.3.53,1.61.85s.47.71.47,1.15v58.5Z"/>
    <path class="st0" d="M412.18,220.96c0,3.33-.75,6.27-2.24,8.81-1.49,2.54-3.6,4.67-6.33,6.38-2.73,1.71-5.95,2.99-9.67,3.84-3.72.85-7.76,1.28-12.11,1.28-2.62,0-5.12-.16-7.51-.49-2.38-.33-4.52-.75-6.41-1.25-1.89-.5-3.46-1.02-4.72-1.54s-2.17-1.02-2.75-1.48c-.58-.46-1.02-1.18-1.34-2.17s-.47-2.44-.47-4.37c0-1.27.05-2.29.16-3.06.1-.77.26-1.38.47-1.84s.47-.77.79-.92.71-.23,1.18-.23c.58,0,1.43.27,2.55.82s2.53,1.15,4.21,1.81c1.68.66,3.63,1.27,5.86,1.84,2.23.57,4.76.85,7.59.85,1.78,0,3.37-.15,4.76-.46,1.39-.31,2.59-.74,3.62-1.31s1.79-1.29,2.32-2.17c.52-.88.79-1.88.79-3.02,0-1.31-.48-2.44-1.45-3.38-.97-.94-2.25-1.76-3.85-2.46s-3.41-1.36-5.42-1.97c-2.02-.61-4.09-1.29-6.21-2.04-2.12-.75-4.19-1.6-6.21-2.56-2.02-.96-3.83-2.15-5.42-3.55-1.6-1.4-2.88-3.09-3.85-5.06-.97-1.97-1.45-4.34-1.45-7.1s.66-5.38,1.96-7.72c1.31-2.34,3.2-4.35,5.66-6.01,2.46-1.67,5.46-2.96,9-3.88,3.54-.92,7.51-1.38,11.91-1.38,2.2,0,4.34.13,6.41.39,2.07.26,3.94.59,5.62.99,1.68.39,3.09.82,4.25,1.28s1.98.85,2.48,1.18c.5.33.85.66,1.06.99.21.33.37.72.47,1.18.1.46.2,1.03.27,1.71.08.68.12,1.52.12,2.53,0,1.18-.04,2.15-.12,2.89-.08.75-.21,1.34-.39,1.77-.18.44-.43.73-.75.89-.31.15-.68.23-1.1.23-.47,0-1.21-.23-2.2-.69-1-.46-2.24-.95-3.73-1.48-1.49-.52-3.22-1.02-5.19-1.48-1.96-.46-4.21-.69-6.72-.69-1.78,0-3.33.15-4.64.46-1.31.31-2.39.75-3.22,1.32-.84.57-1.47,1.24-1.89,2-.42.77-.63,1.59-.63,2.46,0,1.36.5,2.5,1.49,3.42,1,.92,2.3,1.73,3.93,2.43s3.47,1.36,5.54,1.97c2.07.61,4.17,1.28,6.29,2,2.12.72,4.22,1.57,6.29,2.53,2.07.96,3.92,2.15,5.54,3.55,1.62,1.4,2.93,3.08,3.93,5.03,1,1.95,1.49,4.26,1.49,6.93Z"/>
    <path class="st0" d="M480.1,228.19c0,1.14-.04,2.09-.12,2.86-.08.77-.18,1.41-.31,1.94-.13.53-.29.95-.47,1.28-.18.33-.59.74-1.22,1.25s-1.7,1.12-3.22,1.84c-1.52.72-3.25,1.37-5.19,1.94-1.94.57-4.05,1.03-6.33,1.38-2.28.35-4.63.53-7.04.53-5.4,0-10.18-.7-14.35-2.1-4.17-1.4-7.66-3.47-10.49-6.21-2.83-2.74-4.97-6.08-6.41-10.02-1.44-3.94-2.16-8.46-2.16-13.54,0-5.87.88-10.94,2.63-15.22,1.75-4.27,4.2-7.81,7.35-10.62,3.14-2.8,6.86-4.89,11.16-6.24,4.3-1.36,9.01-2.04,14.15-2.04,2.09,0,4.15.15,6.17.46,2.02.31,3.9.72,5.66,1.25,1.75.53,3.33,1.12,4.72,1.77,1.39.66,2.37,1.23,2.95,1.71.58.48.98.89,1.22,1.22.24.33.42.76.55,1.28.13.53.24,1.17.31,1.94.08.77.12,1.7.12,2.79,0,2.54-.26,4.33-.79,5.36-.53,1.03-1.21,1.54-2.04,1.54-.89,0-1.83-.31-2.83-.92s-2.17-1.29-3.54-2.04c-1.36-.74-2.99-1.42-4.87-2.04-1.89-.61-4.14-.92-6.76-.92-5.14,0-9.07,1.65-11.79,4.96-2.73,3.31-4.09,8.16-4.09,14.56,0,3.16.34,5.94,1.02,8.35.68,2.41,1.69,4.43,3.03,6.05,1.34,1.62,3.01,2.84,5.03,3.65,2.02.81,4.36,1.22,7.03,1.22s5.07-.34,7.04-1.02,3.68-1.43,5.15-2.27c1.47-.83,2.7-1.59,3.69-2.27,1-.68,1.83-1.02,2.52-1.02.47,0,.86.11,1.18.33.31.22.56.63.75,1.22.18.59.33,1.35.43,2.27.11.92.16,2.1.16,3.55Z"/>
    <path class="st0" d="M553.2,237.72c0,.61-.26,1.09-.79,1.45-.52.35-1.35.6-2.48.76-1.13.15-2.79.23-4.99.23-2.36,0-4.07-.08-5.15-.23-1.08-.15-1.83-.4-2.28-.76-.45-.35-.67-.83-.67-1.45v-4.67c-2.88,2.59-6.17,4.6-9.87,6.05-3.69,1.45-7.8,2.17-12.3,2.17-3.72,0-7.14-.41-10.26-1.22-3.12-.81-5.82-2.01-8.1-3.62-2.28-1.6-4.05-3.58-5.31-5.95-1.26-2.37-1.89-5.13-1.89-8.28,0-3.42.8-6.39,2.4-8.91,1.6-2.52,3.98-4.6,7.15-6.24,3.17-1.64,7.11-2.86,11.83-3.65,4.72-.79,10.19-1.18,16.43-1.18h6.84v-3.55c0-1.84-.22-3.45-.67-4.83s-1.18-2.53-2.2-3.45c-1.02-.92-2.39-1.6-4.09-2.04-1.7-.44-3.81-.66-6.33-.66-3.3,0-6.25.31-8.84.92-2.59.61-4.89,1.29-6.88,2.04-1.99.75-3.65,1.43-4.99,2.04s-2.43.92-3.26.92c-.58,0-1.09-.15-1.53-.46-.45-.31-.81-.74-1.1-1.31-.29-.57-.51-1.27-.67-2.1-.16-.83-.24-1.75-.24-2.76,0-1.36.13-2.43.39-3.22.26-.79.76-1.5,1.49-2.14.73-.64,2.02-1.34,3.85-2.1,1.83-.77,3.98-1.48,6.45-2.14,2.46-.66,5.15-1.19,8.06-1.61,2.91-.42,5.91-.62,9-.62,5.5,0,10.21.45,14.11,1.35,3.9.9,7.11,2.28,9.63,4.14,2.52,1.86,4.35,4.26,5.5,7.2,1.15,2.94,1.73,6.42,1.73,10.45v39.44ZM533.79,212.61h-7.55c-3.2,0-5.92.2-8.18.59s-4.09.99-5.5,1.77c-1.42.79-2.45,1.74-3.11,2.86s-.98,2.4-.98,3.85c0,2.45.93,4.38,2.79,5.78,1.86,1.4,4.44,2.1,7.74,2.1,2.78,0,5.33-.59,7.66-1.78,2.33-1.18,4.7-2.91,7.11-5.19v-9.99Z"/>
    <path class="st0" d="M592.75,237.53c0,.44-.16.82-.47,1.15-.31.33-.85.6-1.61.82-.76.22-1.77.38-3.03.49-1.26.11-2.86.16-4.8.16s-3.54-.06-4.79-.16-2.27-.27-3.03-.49-1.3-.49-1.61-.82c-.31-.33-.47-.71-.47-1.15v-86.44c0-.44.16-.83.47-1.18.31-.35.85-.65,1.61-.89.76-.24,1.77-.43,3.03-.56s2.86-.2,4.79-.2,3.54.07,4.8.2c1.26.13,2.27.32,3.03.56.76.24,1.3.54,1.61.89.31.35.47.75.47,1.18v86.44Z"/>
  </g>
  <g class="st41">
    <g class="st20">
      <path class="st26" d="M89.89,191.99c3.93.27-1.28,3.52-3.42,4.42l-.51,1.03c1.24,2.75,4.77,3.82,4.12,6.21,3.53,2.48,17.98,7.9,13.53,16.92l1.6,3.99.68-1.22c4.25-.94,8.25-2.55,12.01-4.82l.87-.71,1.68-1.01c6.38-3.13,12.79-6.35,18.2-11.02l2.31-.38,13.4,9.89c-1.27,3.24-26.74,18-31.28,20.13-10.62,4.97-16.54,7.72-28.09,3.5-17.21-6.29-43.42-23.46-54.91-37.69-11.04-13.69-15.39-29.3-14.7-46.93.64-.72,3.89,2.88,4.48,3.49,9.76,10.18,18.74,21.38,28.7,31.33,9.19,9.18,20.47,9.79,31.31,2.86"/>
      <path class="st23" d="M52.25,148.59c3.59.83,6.71,4.2,7.66,7.67l1.61-.18c10.75,12.84,15.4,13.21,27.17,1.97l6.86-7.3,1.38.4c2.13-2.09,12.91,1.26,13.56,3.46.89,3.01-9.21,12.4-12.71,12.43.89,2.77-.48,4.6-4.11,5.49-2.06,4.26-6.39,10.69-10.81,12.76-2.64,1.24-13.04,2.85-13.93-1.37-2.48-.96-3.71-1.43-6.96-4.31-2.79-2.91-18.13-19.02-24.42-25.9-1.43-1.83,2.11-4.21,3.72-5.22,3.72-2.31,7.64-3.42,10.96.11"/>
      <path class="st35" d="M59.28,27.87c3.68-.83,7.4,8.82,7.02,11.5.19.34.19.73.09,1.1-.37,1.37-14.62,17.49-16.24,18.53l-2.36.81c2.39-1.45,9.44-1.84,12.18-1.28l.91,1.28c.01-1.24,1.09-2.02,3.24-2.33,1.8-3.44,2.34-7.38,1.6-11.82l1.22-1.17c3.55,1.32,6.52,4.21,8.59,7.49,1.58,2.06,2.11.56,1.61-4.51-.93-1.54,0-13.35.61-13.65.58-.28,1.04-.5,1.62-.14.25,8.52.15,17.02-.3,25.5-.9,5.27-2.62,8.95-7.66,11.5-9.12,1.38-18.36,1.78-27.72,1.19-4.7,2.76-7.39,2.64-11.87-.96-3.45-.57-5.5-2.31-5.46-4.87.35-1.29.68-2.25,1.31-3.66,3.88-8.79,24.03-26.56,31.61-34.49"/>
      <path class="st1" d="M196.57,67.47v-.64l-.22-1.01c-.07-.32.02-.65.24-.89,4.69-5.05,9.74-13.56,3.55-19.09-.21-.18-.34-.44-.34-.72l-.04-1.28-.81.4c-3.85-3.85-8.92-3.62-13.94-2.43-.17.04-.33.13-.46.25-9.06,8.43-17.85,17.46-25.8,27.03-.2.24-.51.38-.82.36l-.33-.02c-.38-.02-.73.18-.92.51-1.43,2.47-3.28,4.32-5.56,5.57-.32.17-.53.5-.53.86v.5c-.01.27-.13.53-.33.71-2.05,1.87-3.88,3.96-5.49,6.26-.23.32-.61.49-1,.41-.47-.09-.94.16-1.11.6-.19.48-.39.96-.64,1.41-1.86,3.5-17.02,18.89-20.55,21.02-.47.29-.97.54-1.47.77-.41.19-.65.61-.58,1.05l.05.38c.04.31-.06.62-.28.84l-10.2,10.39c-.1.1-.18.23-.23.37-1.02,3.06-2.58,5.56-4.68,7.47-.09.08-.19.14-.3.19-2.69,1.11-4.89,2.61-6.58,4.49-.67.74.03,1.94.98,1.65,2-.6,3.12.32,3.37,2.77.03.31.2.59.46.76,2.24,1.48,3.11,2.95,2.62,4.42-.72,3.51-3.95,7.25-7.41,8.24-.17.05-.32.13-.44.25-3.96,4.11-13.15,14.96-18.06,15.74-9.79,1.56-12.89-4.94-18.8-10.82-1.92-2.34-1.02-4,1.01-5.75.12-.1.21-.23.27-.37l2.74-6.49c.13-.3.4-.52.72-.59l1.02-.21h.64c1.29,1.6,3.03,3.55,4.5,5.23,1.36,1.56,3.15,4.36,5.49,3.51.15-.05.27-.15.38-.26,19.22-20.69,94.19-101.03,105.52-110.06,13.41-10.68,32.1,6.95,19.21,21.23-1.59,1.76-3.35,3.4-4.83,4.98"/>
      <path class="st25" d="M103.34,18.28c1.36.38,7.55,8.09,10.11,11.75.4.57,1.14.66,1.78.4,0,0,0,0,.01,0,.59-.23,10.4-.16,13.31-.04.42.02.81.22,1.05.57l.54.75c-3.94.83-8.2,1.25-12.77,1.28h-36.39c-.72,0-1.33.56-1.37,1.29-.39,7.34.05,14.66-.32,22.06-.06,1.2-.16,2.44-.23,2.85l-1.04-4.76c-.08-.34-.28-.64-.57-.84-1.12-.76-4.07-2.81-5.78-4.57-1.39-1.43-3.58-1.74-4.63-4.23-.08-.18-.11-.4-.1-.6.16-3.53-.24-4.15-.65-4.8.17-.18-1.06,1.69-1.4,1.02-1.57-3.15-2.19-5.66-4.6-9.2-.32-.48-.54-1.68-.79-2.59-.13-.48-1.09,0,.38-1.34.23-.21.41-.39.41-.39,0,0,2.89-2.78,3.37-3.37.08-.1.17-.18.27-.25,4.21-3.08,8.42-4.72,13.7-5.47,2.94-.41,24.02-1.15,25.06-.34.27.21.46.51.63.85"/>
      <path class="st21" d="M36.29,117.29c1.48.38,2.69,1.12,3.02,2.69,5.35-.25,16.3,7.09,7.45,10.74-1.31,1.81-2.51,3.46-4.56,4.52,4.18,4.08,7.53,8.53,10.04,13.34-5.13-2.94-11.55.76-14.69,5.11-5.21-5.7-14.75-12.8-15.35-20.73-.68-8.95,4.98-15.79,14.07-15.68"/>
      <path class="st12" d="M140.99,205.46c-6.27,5.97-14.06,9.61-21.69,13.39,0,0,0,0,0,0l-1.67.52s-.02,0-.02,0c-4.37-3.4-9.43-7.53-12.34-12,0,0-.01,0-.02-.01v-3.19s.02,0,.02-.01c0-10.02,3.86-5.41,8.01-5.79,0,0,0,0,.01,0,4.14-2.57,8.51-4.65,13.11-6.24.01,0,.02-.02.01-.04-3.25-6.74-5.66-14.2-7.05-21.62,0,0,0,0,0-.01,1.87-7.7-1.33-6.33-9.6,4.12-1.47,2.1-3.59,2.81-5.11,2.13,0,0-.03,0-.02,0,.37-.11,11.27-12.68,14.68-15.99.89-.86,2.14-1.74,3.14-2.52.02-.01.04,0,.04.02-1.37,17.95,5.51,34.95,18.51,47.19.01.01.01.03,0,.04"/>
      <path class="st30" d="M71.41,70.66c-7.65,3.87-19.34,1.02-27.84,1.88-.89.09-.91.05-1.53.67-1.76,1.77.02,31.09-.64,35.77-4.6-.96-8.31-.83-12.77.64-2.43.63-3.37.17-3.4-1.63-.21-12.87-.85-24,.26-37.52.09-1.06.72-3.9.87-4.46.99.76,4.02,2.73,6.04,3.74,2.04,1.02,3.07,2.8,6.16,2.86,1.95.04,2.69-1.12,4.4-1.36,5.96-.84,14.18.46,20.51.08,2.24-.13,5.53-1.99,7.94-.69"/>
      <path class="st13" d="M105.25,176.69c.45-.1,1.26.12,1.28.43.19,3.61.02,23.97-1.04,25.41-.14.19.01,1.51-.23,1.62v3.19l1.28,1.85v14.47l-1.28.93c-.93-.18-7.17-5.17-7.51-5.52-.73-.75-3.43-4.2-4.99-6.69-.31-.49-6.56-8.71-6.6-9.82-.06-1.95-1.79-3.35-1.36-5.74.36-1.99,3.76-2.49,5.18-3.91.65-.65-.08-.87-.04-.9,6.92-6.24,8.13-7.17,14.69-15.33h.64Z"/>
      <path class="st19" d="M105.5,108.69c-2.19,2.13-5.14,4.96-6.47,5.79-.26.16-.56.24-.86.25-13.18.23-24.24.14-38.57,0-4.54-.04-5.08-3.25-5.13-4.76-.05-1.47,1.19-3.36,2.93-4.06.2-.08,1.08-.19,1.29-.19,15.43.1,30.19-.11,45.62.05.01,0,.02,0,.03,0,1.51.02,2.24,1.85,1.16,2.91"/>
      <path class="st37" d="M112.92,134.54l1.46-.36c4.09,4.13,10.04,8.23,14.23,1.85,1.98-.56,3.27-.08,1.55,1.7-4.71,4.7-9.18,9.5-14.05,14.05-1.62,1.97-3.33,3.88-5.11,5.75-7.65,7.75-14.65,16.29-22.33,23.97-6.37,6.36-13.4,9.56-21.69,3.77-1.78-1.24-3.05-3.34-4.51-4.75-6.22-6.97-6.22-7.4,0-1.28,3.26,2.54,4.28,2.11,7.03,3.52.91.46.89,1.73,1.76,2.22,2.68,1.51,5.09-.09,7.58-.4.81-.1,1.78.47,2.93.3,2.13-.32,6.09-4.85,7.4-6.7,1.18-1.67,2.78-5.75,3.64-6.58,1.01-.97,3.24-.94,3.86-1.93.71-1.13-.79-3.43-.37-3.83.09-.09,1.75,0,2.55-.31,2.68-1.04,12.39-7.96,10.17-11.14-.36-.52-10.61-3.5-12.08-3.25,2.61-2.68,5.07-5.61,7.66-8.3l1.61-2.23s1.04-.36,4.13-3.52c-.42-2.04.52-2.98,2.55-2.55"/>
      <path class="st33" d="M60.55,136.45c1.74,2.14,5.75,6.39,5.75,6.39l-4.19,8.26c-1.67,1.55-2.64,2.68-2.2,5.15-2.59-2.58-5.17-4.95-7.66-7.67-3.93-4.28-7.8-8.62-11.46-13.15-.26-1.1,2.03-1.91,2.88-2.79.88-.92,1.06-1.92-.44-5.14-1.71-3.67-4.14-6.87-4.14-6.87l-3.6-3.34c1.87.02,3.8,0,5.64.59,5.27,1.7,15.08,14.01,19.43,18.56"/>
      <path class="st22" d="M58.6,86.15c.61-.08,1.36-.14,2.48-.25l12.92,6.5,1.25,1.26c13.82-1.45,27.73-1.86,41.71-1.21,1.5-1.02,3.09-1.14,4.01-.16-.78,1.36-2.17,2.71-3.87,2.68-19.33-.44-38.45-.5-58.07-.43-.89,0-1.78-.18-2.59-.55-.67-.31-1.36-.73-1.63-1.26-.35-.68-.48-1.39-.47-2.08.05-2.34,1.94-4.22,4.26-4.5"/>
      <path class="st42" d="M57.36,86.63c1.12-.4,1.57-.66,2.83-.67,17.76-.07,66.53.06,66.27.33l-2.57,2.93c-.12.14-.3.22-.48.21-16.12-.31-32.4-1.27-48.69-1.34-.06,0-.12-.01-.18-.03l-1.61-.51c-.53-.17-1.1.02-1.43.46-.25.33-.64.53-1.05.52l-11.66-.16c-.15,0-.3-.06-.42-.17l-1.01-.93v-.64Z"/>
      <path class="st5" d="M196.57,67.47c-20.79,22.09-41.8,44.01-62.57,66.12-.21,1.57.43.78,1.32.68,2.9-.32,8.1-.99,10.81-1.65,1.85-.48,2.39-.07,1.61,1.23,2.92,1.06,5.18,2.76,6.78,5.09l-.73,1.34c-3.97,1.27-8.13,2.61-12.46,4.01-.18,4.32-1.06,13.44-5.72,5.51l-3.88-2.02c.05-4.1-.27-7.44-.93-10.05-.02-.4-.25-.55-.31-.64l-.65-.63c-5.31,7.88-11.71,3.23-16.92-1.92,4.08-7.16,10.27-14.13,17.24-18.52.47-1.45,1.14-2.8,2.1-3.98,4.6-5.65,12.64-10.47,17.04-16.14,1.9-2.45,2.15-1.67,5.12-4.79-.42-2.04.52-2.98,2.55-2.55l1.58-.91c3.49,1.45,6.96,3.02,10.4,4.71-.12-2.93,1.97-4.72,6.27-5.35,5.67-6.75,12-13.07,18.64-19.19l2.7-.98v.64Z"/>
      <path class="st37" d="M130.8,137.73c.1.03.96-1.24,1.28.96.27,1.88-.5,6.76.13,7.85.31.54,3.59,1.63,4.31,2.39.74.77.81,2.42,1.63,2.85,2.96-.89,1.88-4.72,2.24-6.69.6-3.29,10.39-3.59,13.4-4.8,1.04-.92,1.44-.54.64.64-.23.42-.49.82-.8,1.16-.3.33-.6.62-.94.73-3.29,1.05-6.79,1.99-10.18,2.4.4,5.31.5,10.7.29,16.17-.75,16.94,9.83,30.94,24.85,37.02,6.1-2.32,11.56-5.99,16.39-11.02l1.85-.24.91,1.28c-1.3,2.12,2.32,7.43,4.08,5.27,1.34-1.83,5.34-5.49,4.44-1.68-5.25,6.69-11.6,12.29-19.14,16.3-5.89,3.13-6.81,4.41-13.21,1.7-8.42-3.56-19.23-12.1-24.35-19.71-10.93-16.25-7.21-34.08-7.78-52.58"/>
      <path class="st11" d="M176.22,126.75c9.05,2.84,12.42,4.44,18.19,6.36.02,0,.04.01.06.02,3.36,1.27,7.16,2.52,8.64,2.95.37.11.65.41.72.79.96,5.23,1.2,22.37.99,24.73,0,.1.05.37.04.47-.22,6.08-.47,9.59-2.16,15.15-.2.65-.96.94-1.53.59-4.15-2.54-5.02-5.34-5.18-9.46-.03-.72-.75-1.2-1.41-.92-.01,0-.02.01-.04.02-.3.12-.64.09-.91-.07l-.38-.22c-.32-.18-.51-.52-.51-.89l-.06-20.07c0-.47-.32-.87-.77-.99-7.92-2.05-16.12-4.64-23.45-8.72-.28-.16-.62-.17-.91-.04l-10.71,4.78c-.22.1-.48.12-.71.05l-1.7-.5c.06-.47-.6-.55-.64-.64-1.94-4.08-5.4-4.07-8.3-6.4-.98-.79,4.02-.63.63-1.27,2.42-.59,6.14-2.23,8.53-3.28,2.73-1.2,10.61-6.05,12.39-6.36,3.64-.65,5.87,2.35,9.01,3.86.05.02.11.05.16.06"/>
      <path class="st8" d="M194.08,167.44c.26-1.17.63-2.3.7-3.57.05-.79,1.02-1.19,1.55-.61,2.54,2.7.36,6.42,1.12,8.99.84,2.82,7.13-.06,4.86,6.29-.02.05-.01.1-.03.15-1.46,4.5-3.33,8.89-7,13.34.07-.29-.11-.68-.32-.63-1.06.29-3.61,4.76-5.66,4.36-.77-.15-3.67-3.61-3.93-4.41-.25-.76-.11-2.08.12-3.06.12-.5,0-1.02-.29-1.44-.22-.32-.22-.74,0-1.05,3.58-5.07,5.97-10.56,7.17-16.47.04-.21.15-.39.32-.52.29-.23.76-.61,1.05-.84.16-.13.27-.31.32-.51"/>
      <path class="st31" d="M183.8,121.76c-.21,0-.43,0-.64,0l-12.75-7.36-5.76-.61,19.78-20.13-.63,28.11Z"/>
      <path class="st28" d="M174.22,37.45c-1.19,1.37-16.23,15.47-15.96,15.33v-16.29c0-1.75-3.8-3.34-5.41-3.53-10-1.19-24.87.01-35.46.02l12.77-1.28h-15.64c-.34,0-10.55-11.4-11.17-13.41l3.44-.87c17.16.27,34.33.4,51.48.24,10.02-.4,16.43,10.78,15.96,19.8"/>
      <path class="st32" d="M77.79,17.01c16.71-.34,66.21-.08,76.82-.01,1.33,0,2.65.15,3.96.42l3.44.64c-18.18.73-40.34.08-58.68.23-9.95.08-26.13-1.65-34.69,2.67-2.52,1.27-2.03,1.78-4.9,2.44,0,0,4.79-6.09,14.05-6.39"/>
      <path class="st40" d="M144.84,53.42l-1.91,1.16c-15.11.64-30.29.79-45.53.48-3.89-.66-3.91-6.54-.2-7.31,12.31-.39,24.63-.32,36.93-.17l1.78-.54c4.24.13,12.53-.69,8.94,6.39"/>
      <path class="st43" d="M138.46,66.83c2.09-.11,4.23.04,6.33.02.31,0,.49.34.31.6-.91,1.29-2.21,2.23-3.42,3.2-.01.01-.03.02-.04.04-1.75,1.96-3.67,3.26-5.75,3.91-.04.01-.07.02-.11.02-11,.41-22.01.58-33.03.5-8.73.07-16.33-4.9-4.28-7.94.03,0,.06-.01.09-.01l39.91-.33Z"/>
      <path class="st27" d="M125.05,87.91c-1.42,1.68-2.46,2.52-4.08,4.38-.13.15-3.01,1.09-3.87,1.41-13.95-.13-27.92.04-41.86-.04-2.18-.28-4.65-4.68-3.19-6.39,16.21-.17,33.37-.59,49.52-.03,1.21.04,2.42-.06,3.48.67"/>
      <path class="st3" d="M135.9,47.03c-.66,1.08-1.73,1.19-2.86,1.29-6.14.57-12.6-.73-18.53-.72-5.56,0-11.41,1.28-17.1.7-2.08,2.08-2.52,4.33.2,6.06l42.48.36,4.76-1.31c-.74,1.47-1.2,1.96-2.84,1.95-7.68-.04-17.46-.14-24.96-.06-5.74.06-11.61.21-17.72-.02-6.08-.22-9.28-2.44-6.95-6.39.75-1.27,2.44-1.7,3.59-1.7,13.12.01,26.85-.58,39.95-.17"/>
      <path class="st17" d="M138.46,66.83c-12.82.66-25.92.8-38.93.66-.66,0-1.31.16-1.89.46-7.11,3.76-5.46,5.98,2.8,6.56,7.08.5,31.06.92,36.93-.79,1.27-.37,2.26-2.39,3.35-3.14.7-.48.89.11.93.08-1.4,1.72-3.06,4.3-5.39,4.51-14.74-.23-25.03.08-40.27-.02-3.8-.02-4.89-3.44-3.96-5.9.56-1.47,2.04-2.4,3.62-2.4l42.81-.02Z"/>
      <path class="st9" d="M120.09,218.46c-.81.47-1.43,1.02-2.12,1.34-2.84,1.36-9.96,5.34-12.72,4.8v-17.25c5.47,2.9,9.37,8.36,14.84,11.11"/>
      <path class="st2" d="M66.94,44.47c.13,3.54.96,12.17-2.19,14.09-.45.27-3.54,1.24-3.87,1.24h-13.09l18.52-20.44c1.17,1.3.57,3.4.64,5.11"/>
      <path class="st15" d="M199.76,43.83c-.95,1.77-1.95,3.55-3.33,5.02-11.44,12.12-22.94,24.26-34.47,36.3-.68.71-1.5,1.28-2.33,1.85-.84.57-1.74,1.07-2.65,1.55-.82.86-1.71,1.67-2.55,2.56-.33,1.08,0,0-1.28.64h-1.6c-2.17-2.91-4.15-4.24-7.81-3.79-2.62-.77-2.13-1.96-.81-3.87,2.16-2.24,4.37-6.54,7.66-8.3,2.7-1.36,4.83-3.49,6.39-6.39,2.32-3.93,10.1-11.61,13.72-15.34,2.45-2.52,11.29-12.19,13.5-13.32,1.96-1.01,8.43-1.08,10.64-.59,2.09.47,3.52,2.37,4.92,3.7"/>
      <path class="st16" d="M196.57,66.83c-4.36,4.74-9.53,9.08-14.06,13.72-1.85,1.89-5.21,6.87-7.29,8.04-1.6.9-3.39.31-4.24.87-.98.65-.2,3.21-1.18,3.93-2.04,1.5-9.79-5.26-12.82-4.84,14.24-14.9,27.86-30.46,42.78-44.71,1.19,1.12,2.51,1.69,3.33,3.38,3.59,7.43-1.74,14.42-6.52,19.62"/>
      <path class="st7" d="M130.16,116.01c-5.83,6.08-11.4,12.46-17.24,18.52-.82.85-1.65,1.84-2.5,2.71,0,0-4.65,4.18-5.81,5.59-1.66-2.91-5.42-2.85-4.47-7.03-.83-.93-8.08,5.2-6.78,1.2,2.4-7.4,8.29-7.29,11.54-10.82,1.26-1.36,1.53-4.02,2.61-5.69,1.65-2.53,8.97-9.11,11.79-12.16.74-.09,1.36.29,1.86,1.12,4.6-1.5,12.44,1,9,6.54"/>
      <path class="st14" d="M142.93,84.08c-.82,4.11,10.38,4.39,13.2,5.33,0,0-19.53,19.89-25.97,26.61.85-3.11-2.12-5.44-4.85-5.74-2.52-.28-5.32,2.16-6-1.92,7.67-8.33,16.06-16.41,23.63-24.27"/>
      <path class="st14" d="M156.98,69.38c-1.7,2.89-1.82,6.16-6.39,6.39l6.39-6.39Z"/>
      <path class="st39" d="M105.25,198.78v-21.8c0-.17.09-.33.24-.42,3.89-2.29,9.33-10.77,12.55-12.35.79-.39,2.04.11,2.54.66,1.56,1.74-.1,3.34,0,5.09.28,4.61,3.79,13.35,5.28,18.37.4,1.34,1.93,2.22,1.77,4.01-.16,1.82-5.96,2.76-7.87,3.67-1.92.91-3.59,2.52-6.04,3.54-1.49.62-5.25-.15-6.23.43,0,0-2.24,4.36-2.24,4.17,0-1.39,0-3.41,0-5.37"/>
      <path class="st23" d="M120.58,143.49c-.27.78-3.14,3.87-3.83,3.18-.75-.76,2.43-3.93,3.83-3.18"/>
      <path class="st34" d="M72.05,87.27l3.19,6.39c-4-.02-15.14.79-18.06,0-1.59-.43-2.85-5.63.18-6.4,2.7-.68,11.16.04,14.69,0"/>
      <path class="st36" d="M154.42,140.92c4.92-1.67,8.85-4.08,13.68-5.74,8.22,4.04,16.71,7.64,25.85,9l.06,23.13c0,.29-.03.58-.09.87-.57,2.85-1.15,5.77-2.16,8.5-1.37,3.71-4.43,8.52-6.01,10.8-.03.05-.06.08-.11.12-3.24,3.13-13.89,12.35-18.09,12.07-4.01-.26-14.53-8.88-17.3-12.12-11.08-12.98-8.47-27.12-8.64-43.03,4.22-1.34,8.59-2.18,12.8-3.6"/>
      <path class="st6" d="M183.8,118.25c-.32,1.06-1.75,1.05-2.7.82-1.16-.28-9.37-4.79-10.9-5.73-1.63-1.01-1.36-1.94-.48-3.43.59-1,6.31-6.84,7.68-8.29.81-.85,4.6-4.87,5.12-5.1.69-.3,1.28.49,1.28.64v21.08Z"/>
      <path class="st38" d="M163.36,158.17c.27.56.19,1.42.7,2.15,2.47,3.53,11.8,2.08,15.56,8.1,2.57,4.12.75,10.03-3.27,12.64-1.55,1-5.69,1.85-5.9,2.08-.46.53.26,4.73-.06,5.05-.18.18-4.94.18-5.11,0-.28-.28.47-3.45-.28-4.51-1.95-2.78-14.62.24-8.01-10.18,3.93,1.35,7.37,3.8,11.83,3.23,2.19-.28,4.34-2.18,3.18-4.51-1.38-2.79-14.66-3.56-15.66-8.94-1.11-3.44-.53-8.19,3.53-8.94,2.27-.42,5.46,1.75,3.5,3.83"/>
      <path class="st29" d="M156.62,164.14c-1.56-3.42-1.11-8.81,1.67-11.36,1.44-1.32,6.44-3.14,6.69-3.52.76-1.13.01-4.22.29-4.5.18-.18,4.94-.19,5.11,0,.21.22-.48,2.88.57,4.22.57.73,4.37,1.6,5.81,2.17,3.43.93,2.11,6.24-1.03,6.12-3.44-1.34-6.86-2.24-10.46-1.01-.44.32-1.81,1.12-1.74,2.49-.66-1.36-.89-3.05-3.11-3.14-2.31-.1-1.81,1.54-2.8,2.2-.41.28-1.24-.33-1.28-.28-.15.24.14,5.89.27,6.61"/>
      <path class="st24" d="M165.28,156.25c4.44-3.21,9.38,1.36,11.49.35,2.04-.98,1.47-4.13,0-5.46,1.04.41,2.42.34,3.11,1.58-3.03,8.45-3.05,4.39-8.59,3.58-1.93-.28-4.05.07-6.01-.06"/>
    </g>
  </g>
</svg>